/* XPM */
static char *e561ff478c9d4d769e39fa0332888b95jLVN48GM0nvyQFjF[] = {
/* columns rows colors chars-per-pixel */
"64 64 244 2 ",
"   c #00000B",
".  c #010317",
"X  c #000325",
"o  c #00022A",
"O  c #030C2A",
"+  c #090E2C",
"@  c #0D1627",
"#  c #06112A",
"$  c #0C152C",
"%  c #151527",
"&  c #11162D",
"*  c #151B2E",
"=  c #191E2F",
"-  c #110A31",
";  c #191A32",
":  c #281B25",
">  c #17232F",
",  c #1B212F",
"<  c #1C2330",
"1  c #292F2C",
"2  c #252832",
"3  c #392C3B",
"4  c #2C3735",
"5  c #373736",
"6  c #4A343E",
"7  c #473D3A",
"8  c #394C36",
"9  c #37453A",
"0  c #757E1D",
"q  c #55492F",
"w  c #474A38",
"e  c #49583A",
"r  c #5C583C",
"t  c #64593D",
"y  c #58653B",
"u  c #576D3E",
"i  c #667B3C",
"p  c #727739",
"a  c #373C4C",
"s  c #523F41",
"d  c #384744",
"f  c #544F47",
"g  c #465A45",
"h  c #695145",
"j  c #6B5246",
"k  c #5D7749",
"l  c #526C54",
"z  c #587A55",
"x  c #686C45",
"c  c #766C45",
"v  c #667944",
"b  c #757B4E",
"n  c #566E65",
"m  c #636875",
"M  c #89664D",
"N  c #8F764B",
"B  c #976A53",
"V  c #A6704B",
"C  c #A56A5B",
"Z  c #A97757",
"A  c #A67359",
"S  c #AC7A58",
"D  c #B27D5A",
"F  c #BD7962",
"G  c #79843D",
"H  c #5B8255",
"J  c #6B8547",
"K  c #748C44",
"L  c #7A8848",
"P  c #7A9345",
"I  c #638451",
"U  c #779953",
"Y  c #73A45F",
"T  c #7CA65D",
"R  c #75AA5D",
"E  c #7CAB5D",
"W  c #7EB054",
"Q  c #56887B",
"!  c #5C8B7A",
"~  c #599274",
"^  c #67976C",
"/  c #6D9A6B",
"(  c #749E66",
")  c #749B6C",
"_  c #7B9C6D",
"`  c #648E77",
"'  c #639273",
"]  c #6C9373",
"[  c #739574",
"{  c #789674",
"}  c #7B9971",
"|  c #66A366",
" . c #6CA465",
".. c #65A169",
"X. c #6CA269",
"o. c #74A565",
"O. c #7AA564",
"+. c #75A862",
"@. c #7BA962",
"#. c #71A468",
"$. c #7EA469",
"%. c #8E961E",
"&. c #8B9237",
"*. c #B9953B",
"=. c #9DA432",
"-. c #A1AC3A",
";. c #AFB738",
":. c #BEC436",
">. c #C6CA28",
",. c #E0DF2D",
"<. c #DCE632",
"1. c #E6ED2B",
"2. c #EFFA27",
"3. c #E7ED37",
"4. c #FEFF38",
"5. c #88884C",
"6. c #928B4C",
"7. c #869548",
"8. c #949450",
"9. c #AC894D",
"0. c #B28E4F",
"q. c #A5954C",
"w. c #B4954E",
"e. c #B78857",
"r. c #BC835D",
"t. c #BD9652",
"y. c #8DAC4A",
"u. c #9AAC4C",
"i. c #8DB64E",
"p. c #8EB84A",
"a. c #9CBC47",
"s. c #94B64E",
"d. c #95B94C",
"f. c #9CBA4C",
"g. c #86AC58",
"h. c #83AD5C",
"j. c #8AAE5C",
"k. c #97AF5D",
"l. c #86B155",
"z. c #8CB355",
"x. c #86B05A",
"c. c #8AB159",
"v. c #93B553",
"b. c #9AB653",
"n. c #96B950",
"m. c #9CB850",
"M. c #94B15C",
"N. c #9CB35B",
"B. c #AEA94E",
"V. c #A5BE46",
"C. c #A2BC4A",
"Z. c #ABBD4D",
"A. c #B0B740",
"S. c #B2BE4E",
"D. c #A3B655",
"F. c #A4B951",
"G. c #ABBA53",
"H. c #A3B45C",
"J. c #ACB55C",
"K. c #AEB958",
"L. c #B3BB55",
"P. c #BBBD55",
"I. c #B3B65D",
"U. c #BBB65E",
"Y. c #B5B959",
"T. c #BCBA5A",
"R. c #849D6F",
"E. c #8C9F6E",
"W. c #859B71",
"Q. c #B98D72",
"!. c #82A364",
"~. c #83AA63",
"^. c #8BAC63",
"/. c #87A26A",
"(. c #8DA26C",
"). c #93AC62",
"_. c #99AB65",
"`. c #93A36C",
"'. c #9BA66A",
"]. c #9BB160",
"[. c #ABAD66",
"{. c #A3A968",
"}. c #B1AF64",
"|. c #A8B261",
" X c #B4B361",
".X c #BBB462",
"XX c #C69857",
"oX c #CB9D56",
"OX c #C9925C",
"+X c #CAB34E",
"@X c #D5BD4E",
"#X c #CDA354",
"$X c #CFA854",
"%X c #D5A757",
"&X c #D3AB54",
"*X c #C3BE56",
"=X c #C3BB5B",
"-X c #CBBC5C",
";X c #D8B553",
":X c #D2BE5C",
">X c #E0AD5A",
",X c #E6B859",
"<X c #CF8E63",
"1X c #C8B961",
"2X c #F6BA60",
"3X c #A5C146",
"4X c #A9C244",
"5X c #ADC14A",
"6X c #B9C24B",
"7X c #C5C845",
"8X c #D9C94C",
"9X c #CED441",
"0X c #DBDA47",
"qX c #C7C055",
"wX c #CCC155",
"eX c #D5C257",
"rX c #DBC555",
"tX c #D3C158",
"yX c #E0D749",
"uX c #E3DE48",
"iX c #E9C656",
"pX c #FAD159",
"aX c #E7E846",
"sX c #E9EE44",
"dX c #EAF244",
"fX c #EDFB42",
"gX c #E9F048",
"hX c #F1FD42",
"jX c #FDFF46",
"kX c #F9F948",
"lX c #F8EE51",
"zX c #F0F766",
"xX c #F8FB79",
"cX c #898C96",
"vX c #BEC1A7",
"bX c #F4F78D",
"nX c #D8C1B1",
"mX c #F8FAAC",
"MX c #FDFFC8",
"NX c #EFE6D9",
"BX c #FCFED0",
"VX c #F4F1E9",
"CX c #FCFCF3",
"ZX c #FFFFFF",
/* pixels */
"h.v.V.G.Y.F.f.f.C.f.z.f.f.f.f.C.f.f.f.f.C.f.z.o.X.O.c.h.c.V.Z.L.G.f.f.f.f.z.m.C.f.f.C.f.f.f.f.f.C.v.@.X.#.h.c.h.f.V.K.L.f.f.f.C.",
"X.O.N.U.:XT.H.j.h.c.h.h.f.C.v.z.C.f.f.f.v.@.X.h.c.@.X.#.#.j.I.:X=XJ.M.E h.h.h.v.C.f.c.f.C.f.C.v.h.X.@.c.h.#.#.X.~.J.-X-XY.N.E h.",
"i.h.x.m.S.b.v.c.c.n.n.h.f.f.#.X.h.@.h.v.h.c.f.4X4Xn.c.d.l.h.v.S.F.v.z.c.v.f.h.v.C.@.X.@.@.@.z.c.c.n.3X4Xf.c.s.l.E c.Z.G.v.v.c.z.",
"G.).] T T / T +.h.h.#.o.c.@.T f.c.@.c.f.4Xs.o.T h.O.s.Z.H.) ( E / O.+.E c.o.#.h.h.O.v.v.@.h.v.3Xf.T O.h.@.l.5XJ./.] E ( ( R +.c.",
"-X:X[.! [ .X(._.~.R h.c.h.X.l.s.z.d.d.z.~./.{.E.R.W._.eX:XU.[ ! }.'.(.).+.h.c.j.X.E s.z.d.f.v.h.!.'.`.R.W.(.*X:X-XE.Q '.[.(.].o.",
"H.~.Y. XJ.6XP.-X=XY.C.C.v.O.~._._.H.H.).[.-XT.|.=XtX=XI.~.H.U.J.6XP.-X-XT.Z.f.d.@.$.)._.].J.).'.1X-XJ.I.tX*XT.M.M.T.}.P.6X-X-XT.",
"#...#.j.c.l.f.f.b.N.m.f.v.b.G.L.L.K.F.C.Z.F.c.E M.M.~.O...X.~.c.l.s.f.b.N.b.f.v.b.G.L.P.L.F.C.V.G.v.E j.M.~.@. ...@.c.c.z.f.m.N.",
"@.c.@.X.X.#.E R ~.^.z.f.f.f.d.d.f.F.T.Y.f.d.f.f.z.E +.#.j.h. .X.X.R R @.^.c.d.f.f.d.d.f.f.Y.T.F.d.a.f.v.h.+.#.h.h.#.X.X.+.E R ^.",
"v.V.v.@.c.F.L.K.*X:XL.d.f.d.f.C.G.=XY.L.=XY.f.z.z.z.c.v.V.f.@.h.m.L.K.P.:XP.f.f.d.d.C.G.T.T.K.=XT.C.v.z.z.c.z.f.C.h.T v.G.K.Y.-X",
"f.f.f.C.d.N.|.J.^.^.U.T.G.G.b.c.d.f.d.d.F.G.f.f.f.C.C.C.f.f.C.f.M.|.J._.~.J.T.K.G.b.z.s.f.f.a.C.G.F.f.f.C.C.C.f.f.f.f.v.|.|.H.^.",
"C.f.f.f.c.E i.W  . .o.~.$.$.#.X.#.+.h.h.l.z.f.f.f.f.3X3Xf.f.C.z.@.c.l.R  .#.~.@.g * = < 4 T T l.l.d.f.f.f.C.3XC.f.C.n.h.h.z.R  .",
"h.3Xz./ T C.C.G.Z.R E s.h.E E E E l.z.z.f.C.f.f.3Xv.o.o.f.f.( #.f.C.Z.S.h.+.v.c.8 * o & < e k v.C.C.f.3Xf.T / z.3XT / z.3XC.L.n.",
"[ ^ [ `.(.h.G.-X-XH.c.a.f.f.F.G.P.*X5X4Xv.T m.f.o._ '.} ^ ^ E.`.~.m.*X-XI.c.d.C.e $ &., o + = J T z.f.h.) `.E.] ^ } './.z.P.1XT.",
"-X'.[.rX:X XU.-X-X-XK.p.f.Y.=X=X=XP.j.Y ) { ! ] [ } wXrX[.'.tXrX.XI.-X-X-XT.d.d.e + 9X9X7X&.o & n ` ' } ] I.iX.X`.T.rX1X X=X-X-X",
"I.*X:XY.F.P.:XH.N.-X-XT.F.f.f.f.Z.T _ W.{.eX'.[.eXU.=XT.T.-X=XF.S.tXI.].T.:XT.G.e + 7XjXjXfXaX&.o b '.tXT.U.*XY.-X-XK.Z.qX=XN.J.",
" .@.G.Z.d.z.^.X. .L.P.L.F.d.F.Y.T.[.=XtXG.F.tXwXn.H.H.o. .b.S.a.i.j.#...N.*Xx * < + 9X,X&XsXjXjXp + 6.F.b.J.~...c.S.C.p.c.~...j.",
"#.o.E v.h.X.E c.@.E s.d.d.F.*XG.F.*XL.f.d.s.G.G.R .. .#.#.E z.z.X.+.c.~.+.J = @ . . -.,X%X8XfX8X,Xw o v H  .#.#.+.l.v.O.X.h.j.+.",
"h.h.#.X.@.@.c.V.m.z.m.C.C.C.c.v.d.f.d.f.d.l.h.#.#.s.c.@.c.o.X.o.@.h.C.f.z.y @ a m m @ M w.jX8X%XpXN = $ < v.@.h.@.X.#.@.@.m.V.v.",
"C.4Xv.c.f.C.v.f.C.V.v.h.v.h.X.h.C.C.f.d.F.L.d.l.b.5XC.f.4Xf.U v G v J K u *   cXZXZXcX. @ B.2XXXc 9.5 # , Z.f.V.C.v.v.V.f.f.C.C.",
"v.z.c.h.z.f.v.v.C.n.#.X.#.o.@.@.T h.c.F.=X=XT.*X-X|.c.v.U k 4 = o o o o o + . f VXZXZXcXo ; N 7 X o w c x j.v.z.z.x.h.v.f.z.n.f.",
"@.#.o.o.o.@.@.#.^ / @.E c.@.^ #.@.h.z.F.Y.=X-XT.M.h.U g 9 , + o p =.%.%.=.y o   d VXZXCXL o X # w N B.N.h.E h.@.#.o.o.O.@.+./ / ",
"@.#.o.+.@.#.' ] ` Q ] _ O.!.E.! / Z.P.T.=X-XY.p.p.f.9 * = o r A.1.mXMXBXmX,.;.e   f m xXjXG + * c =Xf.i.f.f.h.o.#.+.@.@.^ ' ] ! ",
"v.c.@.O.X.! W.U.=X} (.=X'. XeX{.'.K.C.d.F.T.T.L.G.y.= * o e kX4.mXZXZXZXCXVXbX<.w.: . q jX9Xo * x =XY.K.f.f.v.v.h.o.O.' ` {.=X X",
"f.C.D.J.[.{.wXwX*X=X-X*XtX-XT.wXtXY.L.F.p.f.K.K.F.5 * o w kXkX1.BXZXZXZXZXZXmX2.jX+X2 o 5 4 & * u G.L.F.f.d.f.C.Z.H.J.{. XeX*X-X",
"f.f.Z.f.Z.P.=XK.f.P.L.f.K.F.F.=X=X=X1XT.L.=XG.C.u.2 = & p jXsX1.BXZXZXVXCXZXmX1.fXiX7 O O $ * y T.L.C.Z.Z.Z.f.f.F.Z.f.S.P.T.m.m.",
"f.f.d.d.d.d.f.f.d.C.C.d.d.d.f.L.L.F.G.Y.Y.P.u.7.4 + 1 fXdXjXkX4.BXZXNXV Q.ZXmX1.fX8X#X7 1 * w Y.P.P.b.M.M.m.f.f.d.d.f.d.d.f.f.d.",
"X.j.Z.P.=XP.Z.v.v.v.T v.f.f.f.d.d.d.y.K P U 4 * # O i jXaX;.;.;.vXNXD A nXZXmX1.dXfX;X;Xt.& 5 d.d.E #. .X.@.O.#.b.P.=X=XL.m.z.f.",
"E h.M.I.*XT.H.j.E z.z.h.f.C.h.@.v.v.y * , + o o 3 r lXlXy o o X . q V Q.NXBXbX3.dXfX;X%X0.& * e @.o.z.f.c.#.h.h.h.H.T.*XY.N.h.h.",
"f.T Y d.f.T l.c.v.v.z.T f.v.#.@.@.g & o o w &.t e.<XXX7 o O 5 M ; X B C *.2.3.gXsXfX;X%X0.o * e f.f.f.4Xf.v.a.v.+.E C.c.E z.z.v.",
"T.[.[ ' ) W.)  .+.+.#.o.@.o.c.3Xy + : %.0 >.4.iXoXoX9.X # 7 &XpXq.&.+XC C @XfXdXsXfX;X#X#Xt $ e h._ ) ( / T S.=X'.` ^ _ R./ o.+.",
"=XT.wXW.(.wX[..X|.c.v.f.c.X.E g # % qXBXMXBXzXuX0X;X0.$ # 1 XX>XaXjXhX8X@X8XfXsXfX8X#X#X,Xt.O g '.1X X'.[.[.:X=XqX.X[ I.*X[.U.^.",
"^.| M.I.G.C.6XqX*X*XC.C.v.h.g $ = >.xXZXZXZXbX2.fX;X9.$ = O $ 9.iXdXfXhXhXfXsXsXfX;XoX#X;X9.O f qXJ.j.H.T.J.H.@.#.H.Y.Z.V.qXP.*X",
" .o. .+.@.@.l.l.E h.v.f.v.u.5 , :.zXCXZXZXZXbX1.sXdX7X& , * O , 3 5 0XdXdXdXdXfX8X#X#X#X%XM # e d.v.z.c.c.+. .#.#. .+.@.h.l.E E ",
"h.n.h.#.o.E h.E N. Xv.d.f.4 * * 3.zXZXZXZXZXxX*.D aXfXdX&.o , 2 # O 5 $X@XdXsXfX@XoX#Xe.r.M # f F.f.v.v.c.h.@.z.v.o.#.o.T h.h.J.",
"f.C.m.z.d.Z.=X*XT.=X*XZ.Z.2 & 5 <.zXCXCXbX3.hXe.C e.aX-.+ + -.pXh $ < #X#XoX#X#XoX#Xe.Z r.B # r =XF.s.v.v.v.f.C.C.v.z.f.P.T.*XT.",
"f.f.f.f.c.~.N.k.#.#.].|.N.< $ t.aXdX3.3.3.dXfX+XC D M X X &.jXlXXX2 < oXoXS A S S S S D r.h $ e v.f.f.f.f.f.f.f.f.C.d.h.^.N.^.#.",
"C.C.f.z.c.z.d.i.l.+. .E #.> & 0.&XsXdXdXdXdXsXhX+XD B 7 ; 8 -.;.4 o & @X@XXXS A S S S r.h # , I v.f.f.f.C.f.f.C.3Xf.c.c.s.d.l.E ",
"^ z.O.[ $.i.C.P.P.h.h.V.v.> $ 0.;XdXdXdXdXdXdXdXhXe.S <XA 3 3 - # * p fXdX@XoXS Z S OXh # * w C.3XV.C.3Xz.) ] o.z.) ) h.d.G.*XG.",
"`.] _ U.[.).L.-X-XI.v.d.C., $ 0.;XfXdXdXdXsXdXdX+XS Z C A F <X6 X o aXfXfXuX#XXXA D f X & * w z.^ O.h./ ! [. X_ ` '.=X'.k.*X-X=X",
"eX=X=X-X*X*X-X=XT.-XP.f.F.< $ 0.%X8XfXsXsXsXdXfXD C S 8X8X8X8XA.=.-.aXdXfXyX#Xe.A D h h $ * d ] '.{ ` '.`.J.rXeX=X-X*X*X-X-X=X=X",
").H.*XL.d.Z.T.^.^.*X-X=XF.> $ t.%XoX8XfXsXdXdXfXe.A 0XhXhXhXfXkXjXjXdXdXfXyX#Xe.A S r.OXh & * b qX=XT.wXqX=XJ.^.J.*XF.d.P.J.O.H.",
"X.+.v.V.d.E +. .X.v.Z.F.f.P 4 5 #X#XoX8XfXdXdXdX0X0XfXdXdXdXdXdXdXdXdXdXfXyX#Xe.A S S r.A & * y d.P.wXd.E ~.o...E C.C.c.+.#.X.@.",
"o.@.o.E @.X.h.f.h.E v.f.f.u.9 & w.&X#XoX8XdXaXdXfXfXdXdXdXdXdXdXdXdXfXfXuX#X&Xe.Z S S D M & * e v.z.M.@.o.+.#.o.o.@.h.#.#.v.v.T ",
"v.v.h.o.c.c.c.V.C.f.f.f.C.y.d & 4 &X#X#X#X$X#XyXaXaXfXfXfXfXfXfXfXfXaXuX#X&XXXZ S S D S 2 & * u v.l.+. .d.d.h.v.z.@.@.z.j.v.V.f.",
"V.V.f.z.f.V.f.f.V.C.h.O.c.@.X.2 < 0.>X#X#X#X#X#XoX$XuXuXuXuXuXuXuXuX#XoX#X&Xe.A S S r.M * * 8 K.=XL.C.Y.P.F.C.V.C.v.v.V.C.n.C.V.",
"h.h.@.o.T c.x.x.v.h.+.+.#.( I 9 $ * w.,X$X#X#X#X#X#XoXoXoXoXoXoXoXoX#X&X&Xe.A S r.OXM & & * e 8.=X=X=X=X].h.c.h.h.@.o.h.z.h.c.z.",
"@.#.o.@.+.o.#.^ Q ` o.o.h.z l z 9 O * 9.2X,X&X#X#X#X#X#X#X#X#X#X#X&X&XXXe.A r.<XM h * $ * 4 u.b q.=XL.l.z.c.@.o.#.@.@.+.o.X.~ Q ",
"h.@.o. .+.^ ! /.(.! ] `._ b b n z w O ; h 9.>X,X,X&X&X&X#X#X&X&X&XXXOXr.r.<XB f 2 X & * , y 5.5.B.=Xf.d.f.n.c.@.o.#.+.#.! ] `.} ",
"f.d.j.^.$.] [.eXtX_.}.rXT.5.6.5.5.8.w & X 2 s q r OXOXoX,X,X%XOXOXr.f 7 w f 2 X $ = * f x 7.J i 7.T.T.L.m.f.f.f.v.^.).[ } =XrX-X",
"f.f.G.L.Y.T.:XT.K.-X*XL.*XB.5.5.5.6.6.x 9 $ O O O 3 3 5 w w 7 3 3 5 $ O # O $ w b x x 8.8.5.L P f.F.F.f.f.f.f.f.F.G.L.U.=X-XL.Y.",
"C.C.f.d.d.C.Y.F.d.L.G.d.F.f.s.6.5.5.5.8.5.c v v 2 $ # # O O # $ $ # < u x x u J 7.P 8.6.5.5.8.T.-XP.Z.G.G.Z.C.C.f.f.d.d.G.L.d.d.",
"c.s.f.C.G.f.d.f.C.f.n.f.f.d.f.Z.u.K K L L 7.K I l k v k v i v v v i i P P K K K J J L L P s.F.G.Z.F.j.@.@.M.v.z.f.f.F.F.d.d.C.f.",
"X.@.H.T.:XT.J.j.h.c.@.j.f.C.v.z.f.f.f.y.J I z H H z z z z J 5.6.5.5.J k v z I K P K g.d.f.f.d.s.h.#.o.E o.#.#.X.j.J.-X-XY.N.h.c.",
"l.x.z.F.P.G.N.c.h.v.v.h.f.f.o.X.j.h.h.v.h.T z.C.7.J I J I J K 7.5.L J I J 7.h.z.C.h.X.h.h.h.v.c.h.c.C.4Xf.E z.l.x.v.L.P.F.M.h.c.",
"Z.j./ l.l./ h.E c.c.@.O.z.h.@.v.h.+.h.v.4Xf.T z.v.g.d.Z.k.) T l./ T E h.v.@.o.c.c.o.z.j.O.h.z.C.3Xl.h.v.h.z.3XD.$.( z.o.o.E E v.",
"-X-X`.Q [ {._ ~.O. .T h.@.#.z.d.d.d.f.s.h._ E.R._ { ).wX:X[.` ! {.(.$.~. .@.h.h.X.h.d.d.d.a.d.l.$.E.R._ { !.P.:X.X[ Q `.'._ ^. .",
"I.M.qX[.|.7XT.-XT.G.f.C.v.#.~.^.).N.N.).'.1X*X|.=X-X=X=Xk.Y. X{.7XP.-X=XJ.C.f.f.O.O.^.).M.D.).`. X-XI. X-X=X-XN.H.=X'.L.6X=X-XJ.",
"@...O.N.b.i.V.Z.G.K.f.f.v.M.H.L.Y.K.D.C.6XL.c.E N.N.^.~.|  .M.N.z.f.Z.G.Y.F.f.v.M.H.K.Y.Y.D.m.Z.P.N.E j.H.^.~. ...~.N.v.d.Z.F.K.",
"#.h.+. .X.#.E R @.~.z.C.f.C.f.f.d.f.Y.K.d.p.f.f.z.E  .X.h.@. .X.#.E E @.@.l.f.f.f.f.f.d.f.K.Y.f.p.d.f.v.E +. .@.h.#. .X.+.E R @.",
"v.V.c.o.h.v.H.N.T.:XF.d.d.d.d.C.G.=XT.T.=XL.f.z.z.c.h.c.C.v.o.@.z.D.N.K.:XY.d.d.d.d.f.F.T.=XY.=XT.C.v.z.z.c.h.f.f.@.@.c.b.N.H.-X",
"f.f.f.f.f.H. XU.N.].=XP.G.Z.b.v.f.G.f.f.L.L.f.d.f.f.C.C.f.f.f.d.b.I.U.J.).Y.*XL.Z.F.v.f.G.C.a.G.Y.F.f.f.f.C.C.f.f.f.f.m.J.I.I.].",
"C.f.f.f.x.O.z.h. . .~.^.^.^.$.o.@.E h.c.l.z.f.f.f.f.C.C.f.f.C.z.O.c.c.+.| O.^.^.^.~.o.@.E h.c.l.z.d.f.f.f.C.V.f.f.C.n.@.h.z.E  .",
"v.4Xf.#.h.C.f.Z.m.R E l.E +.@.@.+.E x.c.v.s.f.f.C.f.h.g.V.C.O.+.f.a.f.Z.h.+.c.E +.+.@.@.R x.x.z.v.f.f.f.V.l.T f.4Xj.#.v.3Xf.F.v.",
"` ~.) W.R.l.Z.=X*XM.c.V.f.f.v.v.G.L.Z.f.f.f.f.f.v._ R.] ( O.} R.h.f.T.-XH.h.C.f.f.f.v.Z.L.Z.f.f.f.f.f.f.O.R.[ / O.{ E.!.s.L.-XP."
};
