/* XPM */
static char *_2b90eb4b518411fa9940afc204148b7s8aKipxrcamPF2py[] = {
/* columns rows colors chars-per-pixel */
"64 64 253 2 ",
"   c #0C132A",
".  c #161B2C",
"X  c #171B2F",
"o  c #1D232E",
"O  c #1C2434",
"+  c #1D2939",
"@  c #242B2E",
"#  c #262B34",
"$  c #232D3B",
"%  c #2A353B",
"&  c #343231",
"*  c #363737",
"=  c #463C3B",
"-  c #563F3B",
";  c #384538",
":  c #3C513D",
">  c #474637",
",  c #56473C",
"<  c #475639",
"1  c #595839",
"2  c #65593A",
"3  c #586639",
"4  c #676A38",
"5  c #67783B",
"6  c #737B38",
"7  c #1E2F42",
"8  c #2A3642",
"9  c #283947",
"0  c #2C3B45",
"q  c #333E44",
"w  c #293A53",
"e  c #33434B",
"r  c #31474C",
"t  c #394748",
"y  c #334853",
"u  c #354A54",
"i  c #3B4D52",
"p  c #3B5258",
"a  c #3C535B",
"s  c #3C5B64",
"d  c #3C6462",
"f  c #474A49",
"g  c #574745",
"h  c #475648",
"j  c #595448",
"k  c #42565A",
"l  c #475858",
"z  c #455A5D",
"x  c #505653",
"c  c #644D45",
"v  c #695344",
"b  c #745A4B",
"n  c #5B794C",
"m  c #4A6758",
"M  c #516950",
"N  c #597A55",
"B  c #796546",
"V  c #657847",
"C  c #726F51",
"Z  c #667C55",
"A  c #445D64",
"S  c #4B6464",
"D  c #486569",
"F  c #4D6A6B",
"G  c #556967",
"H  c #526D6B",
"J  c #56726C",
"K  c #466972",
"L  c #4C6D73",
"P  c #506D73",
"I  c #4B737A",
"U  c #557472",
"Y  c #57797A",
"T  c #557B7B",
"R  c #6B726A",
"E  c #88654D",
"W  c #906C4F",
"Q  c #99734D",
"!  c #9A7454",
"~  c #A57756",
"^  c #AB7C55",
"/  c #B27C57",
"(  c #8D7B6B",
")  c #7C8638",
"_  c #5D8355",
"`  c #6C8443",
"'  c #6A8648",
"]  c #738A43",
"[  c #788848",
"{  c #79974A",
"}  c #688653",
"|  c #788654",
" . c #6B9559",
".. c #739953",
"X. c #7FA952",
"o. c #79A75D",
"O. c #7CAC5C",
"+. c #5D906E",
"@. c #5B837D",
"#. c #6A996B",
"$. c #759C6A",
"%. c #688873",
"&. c #689374",
"*. c #769673",
"=. c #6CA465",
"-. c #65A268",
";. c #6DA269",
":. c #74A565",
">. c #7BA564",
",. c #75A862",
"<. c #7BA962",
"1. c #73A468",
"2. c #7FA97E",
"3. c #898F3A",
"4. c #9BA335",
"5. c #A3AB3D",
"6. c #B1B439",
"7. c #BEC53F",
"8. c #CDCE38",
"9. c #E7EB39",
"0. c #83894A",
"q. c #888949",
"w. c #958A4E",
"e. c #859946",
"r. c #878752",
"t. c #928F53",
"y. c #AC8F4E",
"u. c #B68657",
"i. c #B69859",
"p. c #8AA549",
"a. c #94AD4D",
"s. c #97B74C",
"d. c #95B94C",
"f. c #9CBA4D",
"g. c #87AC59",
"h. c #83AD5C",
"j. c #86B157",
"k. c #8CB355",
"l. c #8AB159",
"z. c #93B553",
"x. c #9AB653",
"c. c #98B655",
"v. c #9BB35B",
"b. c #A7B948",
"n. c #A2BD4A",
"m. c #AABD4D",
"M. c #B4B04F",
"N. c #A6A754",
"B. c #A4B951",
"V. c #ACBA53",
"C. c #A5B559",
"Z. c #ABB55C",
"A. c #B3BB54",
"S. c #BBBD54",
"D. c #B7B75C",
"F. c #BCBA5A",
"G. c #869C6D",
"H. c #8E8D70",
"J. c #859B72",
"K. c #B59466",
"L. c #88A865",
"P. c #96A867",
"I. c #9CB363",
"U. c #A6AB67",
"Y. c #B5AC68",
"T. c #A8B261",
"R. c #B6B362",
"E. c #C49157",
"W. c #C59659",
"Q. c #CDAA51",
"!. c #C7BA57",
"~. c #C3BB5B",
"^. c #CBBC5B",
"/. c #D4BA58",
"(. c #C69B66",
"). c #CCB367",
"_. c #E2B86F",
"`. c #A7C145",
"'. c #BAC44A",
"]. c #DBCA4D",
"[. c #DBD448",
"{. c #CAC553",
"}. c #D7C457",
"|. c #E5D24F",
" X c #E6E945",
".X c #EAF245",
"XX c #F7FD45",
"oX c #F0ED52",
"OX c #DBC467",
"+X c #E5D06E",
"@X c #D7E676",
"#X c #F2F56C",
"$X c #527B83",
"%X c #6B7C85",
"&X c #5B8483",
"*X c #598588",
"=X c #5E8C8C",
"-X c #5A8C92",
";X c #5E9192",
":X c #5D979C",
">X c #638A89",
",X c #72918A",
"<X c #648D93",
"1X c #639494",
"2X c #699596",
"3X c #659C9C",
"4X c #6A9C9C",
"5X c #749B9A",
"6X c #6BA19E",
"7X c #76A49A",
"8X c #5E9BA1",
"9X c #649EA0",
"0X c #699CA6",
"qX c #729EA1",
"wX c #67A0A1",
"eX c #6AA3A3",
"rX c #6DA8A8",
"tX c #76A8A6",
"yX c #74ABAB",
"uX c #7DB2AF",
"iX c #77ADB3",
"pX c #7CB3B3",
"aX c #7DB7B8",
"sX c #86958C",
"dX c #8AA797",
"fX c #AAB594",
"gX c #88B3A8",
"hX c #90B5A8",
"jX c #86B8B8",
"kX c #84BBBC",
"lX c #B2D28F",
"zX c #94C4B8",
"xX c #A2C3A9",
"cX c #ABCEB9",
"vX c #B9D5BB",
"bX c #D7D69B",
"nX c #F4F18C",
"mX c #FAFA97",
"MX c #F3F2A4",
"NX c #FAFCB8",
"BX c #86BFC1",
"VX c #8CC3C5",
"CX c #8AC4C7",
"ZX c #8DC6C9",
"AX c #96C9C5",
"SX c #91CACB",
"DX c #95D0D1",
"FX c #A7D4C9",
"GX c #B1D7C4",
"HX c #C0DDC3",
"JX c #FBFCD2",
"KX c #FDFEE9",
"LX c #FFFFFA",
/* pixels */
"h.z.b.V.A.B.f.f.n.f.k.f.f.f.f.n.f.f.f.f.n.f.k.>.;.>.l.h.l.b.m.A.V.f.f.f.f.k.x.n.f.f.n.f.f.f.f.f.n.z.<.;.1.h.l.h.f.m.V.A.f.f.f.n.",
";.>.v.F.^.F.C.g.h.l.h.h.f.n.z.k.n.f.f.f.z.>.;.h.l.<.;.1.1.l.Z.^.~.Z.v.O.h.h.h.z.n.f.l.f.n.f.n.z.h.;.<.l.h.1.1.;.L.Z.^.^.D.v.O.h.",
"z.h.j.f.m.x.z.l.l.s.f.h.f.f.1.;.h.<.h.z.h.l.f.`.`.s.l.s.j.h.z.m.B.z.k.l.z.f.h.z.b.<.;.<.<.<.k.k.l.s.`.`.f.l.s.j.O.k.m.V.z.z.k.k.",
"V.P.#.o.o.#.o.,.h.h.1.:.l.<.o.f.l.<.l.f.`.s.:.o.h.>.s.m.C.$.$.O.#.>.,.O.l.:.1.h.h.>.z.z.<.h.z.`.f.o.>.h.>.j.`.Z.L.#.O.$.$.o.,.l.",
"^.^.U.@.*.R.P.P.L.o.h.k.h.;.j.z.k.d.d.k.L.L.U.G.G.J.P.}.^.R.*.@.Y.P.P.P.:.h.l.l.;.O.z.k.d.f.z.h.L.P.P.G.J.L.!./.^.G.@.P.U.L.v.:.",
"C.L.D.R.Z.'.S.^.~.A.n.n.z.>.L.P.I.C.C.P.U.^.F.T.~.^.M.V % o % i t % @ 1 0.b.f.f.<.>.P.I.I.Z.P.P.~.^.Z.D.}.!.F.P.v.F.T.A.'.^.^.F.",
"1.-.1.g.l.j.f.f.c.v.x.f.z.x.V.A.A.V.B.n.m.B.X.M * @ i p y i &X4X&X&XS 0 0 t , < V V.A.A.A.B.n.b.V.z.O.g.v.L.<.=.-.>.l.k.k.f.z.c.",
"<.l.<.;.;.1.O.o.L.L.k.f.f.f.d.s.f.B.F.D.f.` o *XD K yXaXyX;X=XwXwXwXwX&X&X%.+XxX7 ; p.f.f.A.F.B.d.f.f.z.h.,.1.h.h.1.;.;.,.O.o.L.",
"z.`.z.<.l.B.A.V.!./.A.d.f.d.f.n.V.~.A.A.v 8 =XSXK yXkXpXwX3X=X3X3X3X3X1X3X&XB gXpXs # e.F.F.V.~.F.B.k.k.k.l.k.f.n.h.o.z.V.V.A.^.",
"f.f.f.n.s.v.T.Z.L.L.D.F.V.V.c.k.s.f.d.] $ 1XVXVXeXeX3X1X1XrX3X1X3XrXpXwXwXpXs rXSXpXL @ s.f.f.n.V.B.f.f.n.n.n.f.f.n.f.z.T.T.T.L.",
"n.f.f.f.l.<.k.X.=.=.:.L.>.>.1.;.#.; ; O z 1XjXBX2X( gXkXkX5XY pXkXZXBXrXkX2X4XrXZXyX&Xq # ; M j.j.s.f.x.f.n.`.n.f.n.s.h.h.k.o.=.",
"h.`.k.#.o.n.n.V.m.o.O.s.h.O.O.O.: $ r . S =XpXAXdXOXfXCXkXeX&X5XVXZXZXSXkX8 Y aXAXrX@.e O r O ] n.n.f.b.f.o.#.k.`.o.#.k.`.n.A.s.",
"*.#.*.P.P.h.V.^.^.C.k.f.f.f.p.> 9 wX$X$ F Y tXvXlXmXr.*X3X3X3X&X4XVXBXuX$Xt kXAXxX1XU k 8 6X*X@ h k.f.h.$.P.G.&.#.*.P.L.k.S.^.F.",
"^.P.U.}./.R.D.^.^.^.V.d.f.D.h 0 y rXF % a F 1XwX7Xr.i 4X4X3X3X3X3X3XY <X<XD 2X4XwX&Xz t 8 >X1X+ u m &.*.&.D.].R.P.F.}.^.R.~.^.^.",
"Z.~.^.D.B.S.^.C.v.^.^.F.B.e.L 4XD ,X! f D A 2XwX=XA U pXyX3XyXpXpX4X3XVXkXR ! H.9X&X8 u i 1X=XF rXh P.}.F.F.~.D.^.^.V.m.{.~.v.Z.",
"=.<.V.m.d.k.L.;.=.A.S.A.x.@ L 4XD fXnX| 3XjXyX2XH S z 2XpXjXtX2Xz H 5XVXeXC [.@X5XpXkX2XF wX&XU eX9 B B.x.Z.L.-.l.m.n.d.l.L.-.L.",
"1.:.O.z.h.;.O.k.<.O.z.d.< 8 A 4Xu I.+Xj 1XZXZX2X0 q k >XZXZXkX7Xf s aXrXI 2 nXKXfXZXSX>XU eXF S 3Xe $ ' -.-.1.1.,.j.z.>.;.h.h.,.",
"h.h.1.;.<.<.l.b.s.k.x.e.$ S z F e k * e U zXAXSXyX. z 1XwXyXkXcXfXU 3X9X*Xv OXoXJ.ZXuXH t k t i F z z % k.z.<.h.<.;.1.<.<.z.n.z.",
"n.`.z.l.f.n.z.f.n.b.z.: p U i q f f O z =XtXcXuX2X$ S 1X9X3X3X1X1XF 3X3XwXu , N.tXaX3X&Xe $ t t * S J 8 0.m.f.b.n.z.z.b.f.f.n.n.",
"z.k.l.h.k.f.z.z.n.p.t O z S e k Y.q.8 H 3X3X3X;X0 q F 1XwX3X3X3X3Xi 1XwX=Xe 9 e 1X3XwX=XA 8 % y a e J e o V z.k.k.j.h.z.f.k.s.f.",
"<.1.:.:.:.<.<.1.#.t 8 z q 8 iXzXNX).8 J ;XrX;XyXSXSX2XS Y 4XwXwX=Xi &XwX3X2XSXtX;X3XrX&XH t K ZXDXL $ f k $  .<.1.:.:.>.<.,.#.#.",
"<.1.:.,.<.1.+.&.%.e H G . K DX>X6.2 v K.R a 0 tXSXZXZXuX<XS =X3XU q H kXSXSXFXGXY 9 y $ y =XjXZXSXyX+ % J z M :.1.,.<.<.#.&.*.@.",
"z.k.<.>.;.@.J.F.r.k J i 8 U kXVX0Xl bX#Xi.q S &XpXAXAXAXDXP i U S . t <XgXvXhXeX=Xi + s 3XjXZXZXSXtXz . k H h g.h.:.>.&.&.U.~.R.",
"f.n.C.Z.U.U.{.^.M S F % S U yXVXFX@XNXNXi.e H &XwXgXxXHXHX%.+ z e K P U J 4X3X9X&XH R R ,XSXSXjXpX2XH i e F k [ m.C.Z.U.R.}.~.^.",
"f.f.m.f.m.S.~.V 0 k e $ H Y 3XwXdXb.XX+Xy.9 H H ;X3X1XeX6Xi >XkXjXSXDXZXF &XwXwX&Xk w.Q.K.2XaXeX1X3XH S . j h % a.n.n.m.S.F.f.B.",
"f.f.d.s.s.d.f.; O % . O S H 2XwX:X7X3.y.> 0 H <X3X3X3X3X1Xq k pXBXAXcXdXp 1XwXH.R 8 8.#XJX2.:X3XeX<XS i . OXG.  ` d.f.d.d.f.f.d.",
";.l.m.S.~.S.e.$ S t O i p Y L 1XwX9Xy l u e U 3X3X3X3XwX2Xe p &X9XtX6X;Xu 3XA M.fX, |.MX#Xp.:XrX*XL L r t B R i % V.~.~.A.f.k.f.",
"O.h.v.Z.!.F.> e U k e H yXVXU $ $XrXD S 0 $ u 1X6X3X3X1X>Xx G 3X3X1X3X;X+ >Xe Q.S.. u.|.9.3 -Xs 8 qXZX1XS + S H O V F.~.D.v.h.h.",
"f.h.o.s.f. .q k G x 0 H jXSXSX4XtXjX>Xi . 9 <XL 1X3X3X=XC OXH.:X2XrXyXK Y SXiXR hXI % W | -XVX<XpXSXSX2Xz 0 H F t * a.l.O.k.k.z.",
"F.R.*.&.$.x z G ^.y.x >XVXZXVXSXSXVXSX@.% Y SXVX>X2X1X*X> nXH.D z kXSXAXFXVXkXyXCXkXy e qXDXZXSXZXVXZXjXU 0 S H z e m $.G.#.,.,.",
"~.F.{.J.G.C S ( mXQ.G rXZXZXVXVXVXVXVX>X% k 4XSXZXBXiXqX<XdXG p 8 Y yXgXhX6X3X1XyX@.e i tXVXVXVXVXAXAXkX3X0 k A i m m N.~.U.D.L.",
"L.-.v.D.a.h A 6 oXy.y eXrXyXkXGXvXcX@.U 0 p H yXAXvXvXHXFXiXeXz 0 Y wX1X3X3X3XwX&XH 0 k H dXGXvXvXxXhXeX3Xz O $ i G [ p.`.{.S.~.",
"=.1.=.:.} t z % 1 = K eX3X3XyXhXxX5XH H 0 k H =X6XhXxXxXhX1X3XF u U =X3X3X3X3X3XY H 0 k F Y gXxXxXgX;X3XrXa   # k i h } h.j.O.O.",
"h.x.h.+.N q f 8 y L L 3X3X3X3X:X3X;XF J 0 8 U >X1X:X:X:X:XeX$Xj t S &XeXeX3XwXeX1XF 9 k H U 3X:X:XJ i.,X;XA Y 0 e t ; _  .h.h.Z.",
"f.n.s.' 3 q e O P eXL <X3X3X3X3X3X3XU S O = l I 3X5X3X3X,XU g ^ ^ f S Y K 1XY K y j q 8 H &XwXwX$X1 NXfXI *X4Xu . t * ` 0.F.~.F.",
"f.f.f.e.; 0 8 8 H Y jXSXjXyXwX3X3XwXD . # E.u.u.C B K.K.i., )._._.! B u.W K.= Q u.W.!   $ =X4XH.C , +Xr.ZXeXL R w.x O M | v.L.1.",
"n.n.f.{ # t O i H S Y VXSXSXVXyXwX1XS u O W (.K.v v (.).i.* K.(.K.b j ).u.y.= t.).i.v + k L ( }.+Xf J jXuXH z E mXR $ : p.d.j.O.",
"#.k.>.N # # a H S G C ( dXkXBXyXY H H U 0 v ~ Q - g ! ^ ~ # E ~ W , = u.~ E & b ^ Q * z U a B #XKX@XuX<XH H S t Y.; O h { V.~.m.",
"P.&.%.r.% i 2XZX&XsX+X8.1 -X4XwXA k H H 8 W u.u.b b W./ / = u.^ / E v / ^ u.= ! u.u., u J p , bX#X.Xm S G S U qXaXA e f | N.^.~.",
"}.F.t.q.t Y aXSXkXbXJXXX3.w H.,Xs % z +   W E.u.v g Q.].M.> ~ E.oXB 2 oX!.~ = y.E.E.,   q p & y.6.4.8 z F @.BXZXSXrXS # q.w.F.~.",
"P.v.t.; e ;XyXDX<X8.nX+Xy.g mX4 9 $X2Xa + # 1 1 @ O 2 4 * o & > 6 & @ 5 < # . > 2 , . 9 L <X$X,XsX*XO A jXZXZXZXVXwXY O V r.:.C.",
"-.=.] ; z 2XwXpXL 3.9.Q.= M |.j 0XFXhXU i .     .   o 6 ) 8.) 6 5 4.6.6 3   . .     O S >XGXFXSXDXZX8 Y VXcXvXjXyX3X=X0 M _ #.<.",
":. ._ ; F wX3X1X3X-XP.j + z m $XGXcX>XF z = b g E = 6 XXXX.XXXXXXXmXnXXX.X* g c = b 8 H F dXvXvXpX>Xi S 1XeX6X4X3X3X3Xe h ' p.o.",
"k.{ n o Y wX3X3X3X4X8XY 0 U 3XwXtX4X9XY a * E c W g ) XXoXNXKXKX#X#X#X.X.X> c g b E % F =X9X4XeX1X;Xr k 1X9X3X3X3X3XwXy ; ] p.d.",
"e.] ` . p rXwX3X3X3X3X( - s eX3X3X3XwX=Xz O W ! u.Q > .X.XNXLXLXNXoX9.XX6.* y.E / v $ U 3X3X3X3X4X,Xf . u wX3X3X3XrX1X+ ; ] ] e.",
"..n n $ S 4XZXrX1XwX>XbXM.O 1X6X3X3XwX<XH % Q ~ i.y.> 9.#XKXLXLXJXJXoXXX5.1 ].~ ^ v r R 2X3X3X9XsXQ.).%XD 2XwX1XpXVX&Xi * } V { ",
"o.N t q &XrXVXVXaXVXzXnXi.. ;X4X3X3X3X@.k O W ~ ~ M.3  XoX#X#XnXMX#X.XXX3.6 |.~ ^ c % i.H.3X3X:XC |.MXsXDXZXBXaXZXpX3XH $ M m @.",
" .N # p 1X3XrXAXFXZXZXxXf 9 &XwXrXwXH i .   B u.~ ].3  X.X9.9.mXJXmX.XXX1 ) OXu.u.* & mXfXY rX9X* Q.8.&.AXVXAXFXkX3X3X@.% t Z %.",
"] V O S 3X3X3XgX,XdXzXrXD qXSXVXVXZXtX$XK 7 b Q W ].; 7..X.X.X.X.X.X.XXX1 6 OX! W.* $ i.lXaXZXSXA j J I gXcX,XdXtX3XwX>Xt & y.w.",
"] 5 O S =XeXwX3X-X=X4X1X=XVXZXVXVXVXZXSXaXs - ^ K.|.3 5.XX X X X.X.X.XXX1 q.!.E u.# $X=XkXZXVXVXZXBXiX&XwX2X&X:X3XrXwXT i * 0.0.",
"e.] t % + K *XwX3XwX3X;XdXGXVXVXZXSXSXSXeX+ & u.(.}.) 5..X].[. X X].[.XX4 N.W.~ Q   a VXSXSXSXVXVXZXcX>X3X3XwX3X3XI s . e V ] { ",
"..` 5 5 V @ * 1XwX6X;Xp J vXcXcXgX4X5X1XU z $ Q (./.) 5.|.[.[.Q.Q.Q. X X< S.u.u.v 9 S &X2X5X4XhXcXvXfXA D wX3XrXL & * [ 3 ] ` e.",
"#.N [ t.w.0.[ N 6XeX*XO S 1XtX7X2X;X;X3X>XJ 0 Q E.W.4 5. X[.[.Q.Q.].XX[.@ y.u.E.c p U 3X1X1X;X4X7XtX@.i 9 3XwX=Xn [ r.w.q.' n g.",
"j...g.[ 0.[ [ ' n M ; @ k 1X3X3X3X3XwX*XY S k Q u.^ g 5.|. X/.W././.Q.[.@ Q ^ u.= a 0 *X1XeX4X3X3XwX&X8 o t n ' } ' 0.0.[ ' ..l.",
"B.g.#.' ' N _ n ' ' } N * I rXwXwXrX1XO @ ; e c u.^ c 6.XX XQ.Q.Q.W.].[.& ! ^ ~ * % < O e 1XeXwXeXeXu   M ] ) [ N N ' n N ..O.z.",
"^.^.P.D m C N Z N N n } _ i t J +.V n 3 n Z h g ~ W E 5.XX].i.i.Q.Q./.Q = Q ! ^ * h 5 < 5 5 N &Xp t f M N Z q.w.t.G d Z Z $.L.=.",
"Z.v.~.t.| M.N.w.r.[ ] ] ' N Z } } [ [ Z C t.> @ , b Q @ e.{.R.U.{.S.^.N.# < - E : _ } } | [ Z Z r.w.r.r.w.q.w.| v.M.G.q.N.~.^.Z.",
">.-.>.v.c.z.b.p.e.N.` ] ' ' [ 0.0.[ [ ] q.[ < t < h V n N =.v.c.z.f.m.V.t.] 3 3 ' [ [ 0.0.[ ] [ 0.' n } | Z Z N #.L.v.z.s.m.B.V.",
"1.h.,.=.;.1.O.o. .o.X.n.e.` ] ] ` ] 0.[ ` ` ] ] ' n _ =.h.<.=.;.;.O.O.O.<.' ] ] ] ] ] ] ] [ 0.] ` ] ` { O. . .:.h.=.-.;.,.O.o.<.",
"z.b.l.:.h.z.C.c.F./.B.d.a.] ` ] [ q.q.0.q.0.` ' ' ' o.l.n.z.:.<.k.x.c.Z./.N.] ` ` ] ] [ q.q.0.0.t.[ ' g.k.l.h.f.f.o.,.j.c.v.C.^.",
"f.f.f.f.f.C.R.D.v.I.~.S.V.B.[ ' ] a.s.] [ 0.] ] ] ] f.n.f.f.f.d.x.Z.D.Z.I.D.N.[ [ [ ' ` [ f.p.0.M.e.a.f.f.n.n.f.f.f.f.f.Z.D.Z.I.",
"n.f.f.f.j.>.k.h.=.=.L.L.L.L.>.:.,.O.h.....' ` ] ` p.n.n.f.f.n.k.>.l.k.:.-.>.L.} Z Z N }  .h.l.j.k.s.f.f.f.n.b.f.f.n.s.<.h.k.O.-.",
"z.`.f.1.h.n.f.m.f.o.O.k.O.,.,.<.<.O.l.l.z.p.` ` { f.h.g.b.n.>.,.f.f.n.m.h.:.k.} N N N o.o.j.l.k.z.f.f.f.b.j.o.f.`.l.1.z.`.f.B.z.",
"&.L.$.J.G.j.m.~.~.v.k.b.f.f.z.z.V.A.m.f.f.{ ` ` { $.G.&.$.>.*.G.h.f.F.^.C.h.n.a.` ` { n.A.m.n.f.f.f.f.f.>.G.*.#.>.*.G.L.z.A.^.S."
};