/* XPM */
static char *d727e861bfc643b2b15be4d93447144a[] = {
/* columns rows colors chars-per-pixel */
"64 64 173 2 ",
"   c #7FAE56",
".  c #73A45F",
"X  c #7DA65E",
"o  c #75AA5D",
"O  c #7DAC5D",
"+  c #7EB054",
"@  c #5E9F6B",
"#  c #4F877B",
"$  c #5B8E75",
"%  c #54867E",
"&  c #59857E",
"*  c #548A7B",
"=  c #5C8A7A",
"-  c #5C9273",
";  c #6C9E66",
":  c #64956E",
">  c #6A966E",
",  c #659A6D",
"<  c #6D9A6B",
"1  c #749E66",
"2  c #70976F",
"3  c #749B6C",
"4  c #7B9C6C",
"5  c #648F76",
"6  c #648D79",
"7  c #639273",
"8  c #6C9374",
"9  c #649870",
"0  c #729574",
"q  c #7A9775",
"w  c #779871",
"e  c #7B9971",
"r  c #749179",
"t  c #66A367",
"y  c #6DA465",
"u  c #65A169",
"i  c #6CA269",
"p  c #74A565",
"a  c #7BA564",
"s  c #75A862",
"d  c #7BA962",
"f  c #71A468",
"g  c #7DA469",
"h  c #8DB64D",
"j  c #8EB94A",
"k  c #9DBD47",
"l  c #93B74F",
"z  c #95B94C",
"x  c #9CBA4D",
"c  c #84AE57",
"v  c #8AAF56",
"b  c #82A75E",
"n  c #83AD5C",
"m  c #8AAE5C",
"M  c #94AE5E",
"N  c #99AF5C",
"B  c #86B155",
"V  c #8CB355",
"C  c #85B059",
"Z  c #8AB159",
"A  c #93B552",
"S  c #9BB653",
"D  c #96B850",
"F  c #9CB850",
"G  c #94B15C",
"H  c #9CB35B",
"J  c #A5BF47",
"K  c #A8BF46",
"L  c #A2BC4B",
"P  c #ABBD4D",
"I  c #B2BE4E",
"U  c #A3B656",
"Y  c #A4B951",
"T  c #ABBA53",
"R  c #A3B45B",
"E  c #ACB55C",
"W  c #AEB858",
"Q  c #B3BB55",
"!  c #BBBC55",
"~  c #B4B65D",
"^  c #BBB65E",
"/  c #B5B959",
"(  c #BCBA5A",
")  c #839D6E",
"_  c #859E6E",
"`  c #8D9F6F",
"'  c #819A71",
"]  c #839B71",
"[  c #839A72",
"{  c #8A9E70",
"}  c #82A660",
"|  c #83A365",
" . c #84A067",
".. c #83AB61",
"X. c #83AA63",
"o. c #84AB64",
"O. c #8BAC63",
"+. c #82A168",
"@. c #86A06B",
"#. c #8DA368",
"$. c #8FA669",
"%. c #8AA26D",
"&. c #8DA16C",
"*. c #8EA16D",
"=. c #8CA968",
"-. c #93A666",
";. c #96AA60",
":. c #93AD62",
">. c #91AE63",
",. c #96AC65",
"<. c #9AAB62",
"1. c #9AAD64",
"2. c #92A36C",
"3. c #97A26D",
"4. c #9BA56B",
"5. c #9CA66A",
"6. c #9FA868",
"7. c #97B060",
"8. c #9AB161",
"9. c #9DB160",
"0. c #A4AB65",
"q. c #ABAD65",
"w. c #ACAE65",
"e. c #ADAD67",
"r. c #A0A56B",
"t. c #A3A76C",
"y. c #A3A969",
"u. c #ABAB6B",
"i. c #B2AF64",
"p. c #B2AF65",
"a. c #A3B262",
"s. c #ACB261",
"d. c #B4B362",
"f. c #BBB461",
"g. c #B9B264",
"h. c #C3BE56",
"j. c #C8BF57",
"k. c #C0B75F",
"l. c #C3BB5B",
"z. c #C7BE58",
"x. c #C3BA5E",
"c. c #CABA5F",
"v. c #CABC5C",
"b. c #D0BF5A",
"n. c #D4BF5B",
"m. c #D2BE5C",
"M. c #D9BF5D",
"N. c #C1B661",
"B. c #C7B861",
"V. c #CBBA60",
"C. c #CCBA60",
"Z. c #D1BB60",
"A. c #A5C146",
"S. c #A8C343",
"D. c #ACC343",
"F. c #A9C244",
"G. c #AAC049",
"H. c #AFC14B",
"J. c #B6C14C",
"K. c #BAC24C",
"L. c #BEC051",
"P. c #C4C54C",
"I. c #C7C84A",
"U. c #C4C053",
"Y. c #CCC254",
"T. c #CDC058",
"R. c #D4C256",
"E. c #D4C257",
"W. c #DBC555",
"Q. c #D3C158",
"!. c #D9C358",
"~. c #E1C756",
"^. c #E2CA51",
/* pixels */
"n A J T / Y x x L x V x x x x L x x x x L x V p i a Z n Z J P Q T x x x x V F L x x L x x x x x L A d i f n Z n x P W Q x x x L ",
"i a H ^ Z.( R m n Z n n x L A V L x x x A d i n Z d f f f m ~ Z.l.E G O n n n A L x Z x L x L A n i d V n f f i ..E V.v.~ H O n ",
"h n C F I S A Z Z D D n x x f i n d n A n Z x F.S.D Z z B n A I Y A V Z A x n A L d i d d d V Z Z D A.D.x Z l B   Z P T A A Z V ",
"T ;.> X X < X s n n f p Z d X x Z d Z x S.l p X n a l P R 3 1 O < d s O Z p f n n a A A d n A A.x X a n a v G.E  .> O 1 1 o s Z ",
"v.b.w.= 0 g.*.,.o.o n V n i B l V z z V } @.r.` _ ' <.E.b.^ 0 = i.4.$.:.p n Z m i O l V l x A b +.4.3.) ' *.z.n.v.` % 5.w.%.8.p ",
"R ../ d.E K.! v.l./ L L A a o.,.1.R R -.q.v.( a.x.Q.l.~ ..R ^ E K.! v.v.( P x z d g :.1.9.E ;.4.N.v.E ~ Q.z.( M G ( s.! J.v.j.( ",
"f u f m V B x x S H F x A S T Q Q W Y L P Y Z O G G ..a u i ..V B l x S H S x A S T Q ! Q Y L J T A   m G ..d i u a Z Z V x F S ",
"d Z d i i f O o ..O.V x x x z z x Y ( / x z x x V O s f m n y i i o o d O.Z z x x z z x x / ( Y z k x A n s f n n f i i s O o O.",
"A J A d Z Y Q W z.n.Q z x z x L T l./ Q x./ x V V V Z A J x d n F Q W ! M.! x x z z L T ( ( W l.( L A V V Z V x L n X A T W / v.",
"x x x L z H s.E O.O.^ ( T T S Z z x z z Y T x x x L L L x x L x G s.E 1...E ( W T S V l x x k L T Y x x L L L x x x x A a.s.R O.",
"L x x x Z O h + y y p ..g g f i f s n n B V x x x x A.A.x x L V d Z B o y f ..d g g f f p O n B B z x x x L A.L x L D n n V o y ",
"b A.V < X L L T P o O l n O O O   B V V x L x x A.A p p x x 1 f x L P I n s A Z O O O   C V V A L L x A.x X ; V A.X < V A.L Q D ",
"0 > 0 3.*.b T v.v.R Z k x x Y T ! h.J.S.A X F x p 4 4.q > > { 3.} F z.v.~ V z L x P Y Q h.J.S.x X V x n 3 2.{ 8 > e 4.@.V ! V.( ",
"v.4.q.W.n.d.^ v.v.v.W j x / l.l.l.! m . 3 q $ 8 0 e Y.W.q.4.E.!.f.~ v.v.v.( z z W l.l.l.U.H X 3 q 7 7 e 8 ~ ^.f.2.( W.V.d.l.v.v.",
"~ h.b./ Y ! b.R H v.c.( Y x x x P X 4 ' y.!.4.q.E.^ l.( ( v.l.Y I E.~ 7.( m.l.T Y x z P V < ' 2.Q.s.4.Q.( ^ h./ v.v.W P T.x.H E ",
"y d T P z V O.i y Q ! Q Y z Y / ( w.l.Q.T Y Q.Y.D R R p y S I k h m f u H h.Q T z x W ( d.d.Q.Q x h.E.Y S E ..u V I L j V ..@ m ",
"f p   A n i O Z d O l z z Y h.T Y h.Q x z l T T o u y f f O V V i f Z ..s V z z F ! ! x ! h.Y z j Y Q C i i f f s B A a i n m s ",
"n n f i d d Z J F V F L L L Z A z x z x z B n f f l Z d Z p i p d n L x V A L L L A Z x x z z x V c s i Z A d n d i f d d F J A ",
"L F.A Z x L A x L J A n A n i n L L x z Y Q z Z S J.L x F.x Z A J A x L J x n A V f p D L L x x Q Y B G P P x J L A A J x x L L ",
"A V V n V x A A L D f i f p d d X n Z Y l.x.( h.v.a.V A V V n m F A V x x d i f f d d d n B F ! v.( ! b.d.m A V V C n A x V D x ",
"d f p p p d d f > < d   Z d , f d n V Y / l.v.( G n n X p f p f d d f ; 8 a n C n , i d n B Y Q ( v.l.H n O n d f p p a d p ; < ",
"d f p s d f - 8 6 & 8 4 a | _ = ; P ! ( l.v./ j j L A X p p s d s - 7 8 & 5 4 a a *.8 - x J.( ( x.l.x j x x n p f s d d > 7 8 = ",
"A Z d a i = ' ^ l.e *.l.4.d.!.0.4.W L z Y ( ( Q T x x A V O p p $ 0 d.v.#.e k.0.0.!.~ 2.E P x x / l.Q W x x A A n p a 9 6 0.x.d.",
"x L U E 0.y.T.T.z.l.v.z.Q.v.( T.Q./ Q Y j x W W Y x z L L Y R E r.l.E.z.l.v.v.v.v.( v.E.( Q W z z T Q Y x z x L P R E y.d.E.h.v.",
"x x P x P ! l.W x ! Q x W Y Y x.x.x.C.( Q l.T L P P L x x Y L L J.h./ z / ( x Y W x ( v.x.V.x.W l.Q L L P P x x Y P L I ! ( F F ",
"x x z z z z x x z L L z z z x Q Q Y T / / ! Q S G H Y x x z z x z z x z L L z z z z T / Y Y Q / ! ! S G G F x x z z x z z x x z ",
"i m P ! x.! P A A A X A x x x z z z z z k V O y i y d f d Y Q x.( P A A l O V x x L z z z z z k l   y i i d a f S ! l.l.Q F V z ",
"O n G ~ z.( R m O V V n x L n d A A A x Z p d A x n f n O Z E z.( E G O n A n A J A p V D A x V d p V x Z f n n n U ( h./ H n n ",
"x n . z x X B Z A A V X x A f d d f d V A x x L F.x z x v p Z L n   V V A A n A x p p d f a Z A x x x F.x A k A s o L v o V V A ",
"( i.0 : 3 ' 3 y s s f p d p Z A.x A x x z d 3 3 1 < v L.f.{ 7 , ' 4 i s s f f d a n L x A z x k n 4 3 1 < X I l.5.5 : 4 ) ; p s ",
"l.( Y.' *.Y.q.g.a.Z A x V i O n Z D S O.#.y.N.0.0.q.d.Q.( Y.4.q j.d.i.s.m A A A f s n n V x M @.4.f.d.5.q.w.b.l.U.f.r ~ h.w.^ O.",
"O.t G ~ T L J.U.h.h.L x A O.:.a.s.E R N ( j.H Z ~ ( E 8.y ..E W L H.U.h.h.P x A m O.a.s.E E N E T.E m R ( E R d f R / P J U.! h.",
"y p y p d d B B O n A x A P P P x L T L z z l V Z n p y f f y s d n B   X V x A x P P L L T L z z A V Z Z s y f f y s d n B   O ",
"n D n i p O n O H d.A z x x z x Y / x.( Q L x A A C d d A Z f f s n   M d.H z x x z x Y Q l.l./ Y x A A Z n d V A p f p X n n s.",
"x J A V l P l.h.( l.h.P P L x x P ! L L l.! x A A A A x L x V A P ! ! ! ( z.! P J L x L ! T x ! l.Y l A A A x L L A V x ! ( h.( ",
"x x x x Z o.H M f f 9.a.H H m O Z Z A A V A x x x x x x x x L A ..G H g y :.s.9.H G n B B V A V A x x x x x x x x L z n O.H O.f ",
"L L x V Z V z h B s y O f i f f i s n n Z A x x x L x x L L A Z V l l B O y o s i i f i f O n Z A x x x L x x L A.x Z Z l z B   ",
"> V d 0 a h L ! ! n n J A B Z B A S x x A.A.L A.L b 3 7 n n 2 4 v k Q U.G O L D V Z B A F L x L A.J L A.V 3 8 p V 3 3 b z T h.T ",
"2.8 4 ^ w.:.Q v.v.~ A z L T ! ! z.v.P k b > X b $ 0 f.0.8 8 s.f.-.U v.v.l.S l x P ! ! h.v.Q A.v > a b < = q.d.4 5 4.l.6.M h.c.l.",
"!.x.x.v.h.z.v.l.( v.! x Y Q ( / Q S a > e t.6 e 5.2.l.W.v.l.v.z.z.v.z.( v.z.Y x W ( / Q P d > 8 5.q 5 5.2.E W.E.l.v.z.z.v.v.l.l.",
":.R h.Q z P ( O.O.z.v.l.Y z j x Q | 2.w.E Y.( l.Y.h.( H :.( ! x L ! 9.d / m.x.Q z j z Q M ) u.q.U.l.( Y.U.l.E O.E z.Y z ! E a R ",
"i p A J z O s y i A P Y x Y / / ( B.v.U.L z j.U.B d o.y t Z J x n s f i m P Y x x Q / / N.v.U.P z ! Y.z O o.p u   L L Z s f i d ",
"p a p O d i n x n O A x x T Q x z W Y z z V A V p s s f a p X d i d x V d B z x L ! P z Y T z z A V G d p s f p p d n f f A A X ",
"A A n p Z Z Z J L x x x L A o Z L z x x z A c y O k A n A n p n V m x L x x x L x O O x z z x z A B o y l z n A V d d V m A J x ",
"J J x V x J x x J L n d Z d i d A x x F / h.P Y ! / L L J L V F K x x J A.V p n n f p V x x D W l.Q L / ! Y L J L A A J L D L J ",
"n n d p X V C C A n p s f p O d p d B F ! x.x.v.d.:.n C n X p d Z Z n V m s s f f d d p d n A / l.x.x.l.1.n Z n n d p n V n Z V ",
"d f p d p p f , % 5 p p n a 7 9 O l Y / / l.l.Y Z V n d p f d p p f , * & 3 p n n 7 9 p V x Q / ( x.Q B V Z d p f d d p p i - & ",
"n d p y s > = @.*.= 8 -.4 -.w.8 3 P Q Q ( C.Q z x x A n d p y s ; = e -.7 = 2.@. .d.' 7 U ! Q ( v.l.x z x D Z d p f s f $ 8 2.e ",
"x z m O.g 8 q.E.Q.,.s.W.( x.E.l.g./ x z z T ( ( W x x x x V O.O.8 2.T.~.0.1.W.x.( Q.z.f.~ Y z z Y ( ( Q F x L x A O.:.0 e l.!.v.",
"x x T Q / ( b.( W v.z.Q z.( / z.z.l.x.W z Y Y Y x x x x x T T / ^ v.z.W h.v.Q ( h.Q l.v.l.x.( z x Y Y x x x x x Y T Q ^ l.v.Q / ",
"L L x z z L / Y z Q T z Y x x l.l.( l.( ( v.Q L T T P x L x z z x Q W j T Q z x F z ( v.( ( l.( v.! L T T P L L x x z z T Q z z ",
"Z l x L T x z x L x D x x z x P Y x x Y T P F n d ..A V A x x T Y z z L L A x x z x P Y x x Y T P Y m d d G A V x x Y Y z z L x ",
"i d U ( Z.( E m n Z d m x L A V x x x z A O y d d p f i f G / Z.x./ G n Z X n A L x V z L x z l n f p O p f f i m E c.v./ H n Z ",
"B C V Y ! T H Z n A A n x x p i m n n A n n A J J V n A B Z S ! Q S G n V x n A J n i n n n A Z n Z L F.x O V B C A Q ! Y G n Z ",
"P m < v c < n O Z V d a V n d A n p n A F.x X V A n z P N 3 X B ; X O n A d p Z Z p V m p n V L A.c n A n V A.U a 1 V p p   O A ",
"v.v.3.* 0 t.4 o.a y X n d f V z z z x l n 4 ` ) 4 w :.Y.m.q.6 = t.*.g ..y d n n i n z z z k z v a _ _ 4 w | ! m.f.0 # 2.5.4 O.y ",
"~ 7.U.u.a.I.( v.( T x L A f ..O.:.H H -.5.N.z.s.l.v.x.l.M / d.0.P.! v.x.E L x x a a O.:.G U ;.2.g.v.~ d.v.x.v.H U l.5.Q K.x.v.E ",
"d u a H S h J P T W x x A G R Q / W U L J.Q Z O H H O...t y G H V x P T / Y x A G U W / / U F P ! H O m R O...y u ..H A z P Y W ",
"f n s y i f O o d ..V L x L x x z x / T z j x x V O y y n d y i f O O s d B x x x x x z x W / x j z x A   p y d n f i i s O o d ",
"V J Z p n A U H ( m.Y z z z z L T l.( ( l.Q x V V V n Z L A p d V U H W n./ z z z z x Y ( l./ l.( L A V V Z n x x d d Z S H U v.",
"x x x x x R d.^ H 9.l.! T P S A x T x x Q Q x z x x L L x x x z S ~ ^ E :.~ h.Q P Y A x T L k T / Y x x x L L x x x x F E ~ ~ 9.",
"L x x x C a V n y y ..=.O.O.g p d O n Z B V x x x x L L x x L V a Z Z p t a =.O.O...p d O n Z B V z x x x L J x x L D d n V O i ",
"A F.x f n L x P F o O B O s d d s O C Z A A x x L x n n J L d s x k L P n p Z   s s d d o C C V A x x x J v X x F.m f A A.x Y A ",
"7 } 3 ' ) c P x.h.G Z J x x A A T Q L x x x x x A 4 _ 8 1 a e _ b x ( v.R n L x x x A P Q P x x x x x x a ) 0 < d w { | l Q v.! "
};