/* XPM */
static char *febe6485adc24b9af2df71332a82a64cnMGaWXoav27Y1A4U[] = {
/* columns rows colors chars-per-pixel */
"64 59 255 2 ",
"   c #000009",
".  c #000114",
"X  c #00011C",
"o  c #030A1D",
"O  c #090A1A",
"+  c #11111D",
"@  c #000521",
"#  c #050226",
"$  c #020C24",
"%  c #0A0E22",
"&  c #041226",
"*  c #0C1224",
"=  c #081729",
"-  c #0C1529",
";  c #0D1A2A",
":  c #15192A",
">  c #141B2D",
",  c #171C35",
"<  c #1B1E32",
"1  c #261B2F",
"2  c #18222D",
"3  c #172C2F",
"4  c #1C2332",
"5  c #172A33",
"6  c #26242C",
"7  c #28342E",
"8  c #232433",
"9  c #282936",
"0  c #2B2A36",
"q  c #2B243A",
"w  c #352736",
"e  c #2A3735",
"r  c #33323B",
"t  c #35383A",
"y  c #3C3A3E",
"u  c #492F3A",
"i  c #58253A",
"p  c #39453A",
"a  c #33493C",
"s  c #4A4E3A",
"d  c #4A583B",
"f  c #54673C",
"g  c #62773D",
"h  c #2B2B44",
"j  c #3A2B44",
"k  c #393B42",
"l  c #482F4A",
"z  c #463946",
"x  c #593855",
"c  c #703B47",
"v  c #663C5A",
"b  c #663E63",
"n  c #3C504A",
"m  c #474646",
"M  c #594949",
"N  c #4D544F",
"B  c #6B4D4E",
"V  c #7B4459",
"C  c #675C53",
"Z  c #745A57",
"A  c #4D6342",
"S  c #576950",
"D  c #707448",
"F  c #696357",
"G  c #78685A",
"H  c #6E4065",
"J  c #754264",
"K  c #526C68",
"L  c #6E716B",
"P  c #AD3D47",
"I  c #89474B",
"U  c #95464B",
"Y  c #87475C",
"T  c #994D59",
"R  c #915F58",
"E  c #AB4B50",
"W  c #A75358",
"Q  c #B55454",
"!  c #BB5655",
"~  c #BA5958",
"^  c #8A7357",
"/  c #A3665C",
"(  c #BB635C",
")  c #B6695F",
"_  c #8A4965",
"`  c #B35B6A",
"'  c #876C67",
"]  c #887763",
"[  c #967B69",
"{  c #BC6B61",
"}  c #B47565",
"|  c #C75A57",
" . c #D25F5B",
".. c #CC625C",
"X. c #C47968",
"o. c #D07165",
"O. c #E96760",
"+. c #6D833F",
"@. c #758945",
"#. c #79934A",
"$. c #6F8C51",
"%. c #648B59",
"&. c #7BA55D",
"*. c #75A95D",
"=. c #7DAC5C",
"-. c #7EB054",
";. c #58887C",
":. c #5A9271",
">. c #67966A",
",. c #6C9A6B",
"<. c #769C6B",
"1. c #6D8D72",
"2. c #689373",
"3. c #779772",
"4. c #6DA465",
"5. c #64A168",
"6. c #6CA269",
"7. c #74A665",
"8. c #7AA565",
"9. c #75A862",
"0. c #7BA962",
"q. c #71A468",
"w. c #7CA768",
"e. c #77A774",
"r. c #8E954E",
"t. c #A19A4B",
"y. c #88A648",
"u. c #8DB74C",
"i. c #9DBD47",
"p. c #93B74F",
"a. c #95B94C",
"s. c #9CBA4C",
"d. c #85AB57",
"f. c #83AD5C",
"g. c #8AAE5C",
"h. c #96AB51",
"j. c #86B155",
"k. c #8CB355",
"l. c #84B059",
"z. c #8BB159",
"x. c #93B553",
"c. c #9AB654",
"v. c #96B950",
"b. c #9CB950",
"n. c #94B25B",
"m. c #9CB35B",
"M. c #A6BF47",
"N. c #A2BC4B",
"B. c #ABBD4D",
"V. c #A4A657",
"C. c #AFB050",
"Z. c #A4B951",
"A. c #ABBA53",
"S. c #A4B65A",
"D. c #ACB55C",
"F. c #B3BB54",
"G. c #BBBD55",
"H. c #B7B65D",
"J. c #B4B959",
"K. c #BCBA5A",
"L. c #9B846A",
"P. c #889E6E",
"I. c #8C9472",
"U. c #AA8E6F",
"Y. c #A88972",
"T. c #AB9878",
"R. c #B79878",
"E. c #84AA63",
"W. c #8CAC62",
"Q. c #89A26A",
"!. c #95A867",
"~. c #9AA66A",
"^. c #9BB466",
"/. c #8CAE7E",
"(. c #98AD78",
"). c #8DB07B",
"_. c #98B378",
"`. c #A8AB67",
"'. c #A6B766",
"]. c #B4B262",
"[. c #BBB662",
"{. c #B8A479",
"}. c #A6B778",
"|. c #B8B978",
" X c #C2BD57",
".X c #C3BB5B",
"XX c #CBBC5C",
"oX c #D2BE5B",
"OX c #C5836E",
"+X c #C8846E",
"@X c #C98A72",
"#X c #D48C73",
"$X c #CC9776",
"%X c #DC9277",
"&X c #E58E76",
"*X c #E4987A",
"=X c #C8B964",
"-X c #C6A57B",
";X c #CCAB7D",
":X c #CCB373",
">X c #D4B47D",
",X c #E0A57D",
"<X c #A7C146",
"1X c #B6C250",
"2X c #B0C26E",
"3X c #C7C84A",
"4X c #C7C055",
"5X c #D6C357",
"6X c #CEC377",
"7X c #E7C766",
"8X c #696F86",
"9X c #95948B",
"0X c #87A983",
"qX c #95A984",
"wX c #9FB380",
"eX c #AFAF8B",
"rX c #B2B2B0",
"tX c #CBAA81",
"yX c #CCB387",
"uX c #D4B382",
"iX c #D9B886",
"pX c #DBBB86",
"aX c #FFAA87",
"sX c #E2BD88",
"dX c #DBC38C",
"fX c #D4CE97",
"gX c #DCC893",
"hX c #E4C38A",
"jX c #EAC68C",
"kX c #F1CB8E",
"lX c #E4CB97",
"zX c #F5CE91",
"xX c #EAD89B",
"cX c #F9D595",
"vX c #FFE39E",
"bX c #DAD1AA",
"nX c #E7D8A5",
"mX c #ECDDA5",
"MX c #EDD7B0",
"NX c #EEE3AA",
"BX c #F6E6A9",
"VX c #F6F4AD",
"CX c #F4E8B4",
"ZX c #F9F6B6",
"AX c #FFFDBD",
"SX c #BEBFC8",
"DX c #D4D3C8",
"FX c #E0DCC7",
"GX c #F2E9CF",
"HX c #FCFAC4",
"JX c #FBF8D6",
"KX c #EEEAE6",
"LX c #FDFBEA",
"PX c #FDF9F3",
"IX c #FFFFFE",
/* pixels */
"f.x.M.A.J.Z.s.s.N.s.z.s.s.s.s.N.s.s.s.s.N.y.A ; ; ; ; ; ; ; 2 D V.s.s.s.s.z.b.N.s.s.N.s.s.s.s.s.N.x.0.6.q.f.z.f.s.B.A.F.s.s.s.N.",
"6.8.m.K.oXK.S.g.f.z.f.f.s.N.x.z.N.s.s.s.#.5 - 0 0 t I U U c 0 < 4 D n.=.f.f.f.x.N.s.z.s.N.s.N.x.f.6.0.k.f.q.q.4.E.D.XXXXJ.m.=.f.",
"u.f.l.b.B.c.x.z.z.b.b.f.s.s.q.6.f.0.f.d > $ B #XX.X...| | | | E < & #.z.x.s.f.x.N.0.6.0.0.0.z.k.z.v.<X<XN.z.p.j.=.k.B.A.x.x.k.z.",
"A.!.2.&.&.,.&.9.f.f.q.7.z.0.&.s.z.0.A > $ i  ...+X+X{ ~ ( ( Q  .E < e *.z.7.q.f.f.8.x.x.0.f.x.<Xs.&.8.f.0.j.<XD.Q.2.=.<.<.*.9.z.",
"XXoX`.;.3.[.Q.!.E.*.f.k.f.6.j.p.k.y.0 $ M o...X.OX{ +X@XX.( | |  .T = e 4.f.z.z.6.=.p.k.a.s.x.f.Q.~.~.P.P.Q. XoXXXP.;.~.`.Q.^.q.",
"S.E.J.].D.1XG.XX.XJ.N.N.x.8.E.!.^.#.0 B } %X@X@X( Q +X+XX.#X/ U | Y h ; V.B.s.s.0.w.W.^.^.D.!.~.=XXXD.H.5X XK.W.n.K.`.F.1X XXXK.",
"q.5.q.g.k.j.s.s.c.m.b.s.x.c.A.F.F.r.8 +X#XOX+XX.~ OX+XOX#X+X= 6 | W v ; A c.s.x.c.A.F.F.F.Z.N.M.A.x.=.g.n.E.0.6.5.8.z.k.k.s.x.c.",
"0.z.0.6.6.q.=.*.E.W.k.s.s.s.a.a.s.#.8 OX@XOX@X( | @XOX+X#XB $ & I O.c = t z.a.s.s.a.a.s.s.J.K.Z.a.i.s.x.f.9.q.f.f.q.6.6.9.=.*.W.",
"x.M.x.0.z.Z.F.A. XoXF.a.s.a.s.N.A.r.& B &XOX@X( W @XOX+X+X0 $ ; I | Y q p G.s.s.a.a.N.A.K.K.A..XK.N.k.z.z.z.z.s.N.f.&.x.A.A.J.XX",
"s.s.s.N.a.m.'.D.W.W.H.K.A.A.c.k.a.#.= : ) #X@XW z @XOX+X@X0 , Y | V J l e D.K.A.A.c.z.p.s.s.i.N.A.Z.s.s.N.N.N.s.s.s.s.x.'.].S.W.",
"N.s.s.s.z.0.u.-.4.4.7.E.w.w.q.6.q.%.< $ R *X%Xx r %XOX@XX.1 j J W Y v < e q.E.0.w.w.q.q.7.=.f.j.j.a.s.s.s.N.<XN.s.N.v.f.f.k.*.4.",
"f.<Xz.,.&.N.N.A.B.*.=.p.f.=.=.=.=.j.$.& I o.*Xz w &XOX$XX.1 j J V J j - S 9.x.k.=.=.=.=.l.z.k.x.N.N.s.<Xs.&.<.x.<X&.,.z.<XN.F.b.",
"1.>.,.~.Q.f.A.XXXXS.k.i.s.s.Z.A.F. X1Xp w ..*XM c { #XX...6 q J J v > 7 V.k.a.N.s.N.Z.B. X1X<Xs.&.z.s.f.<.Q.P.2.>.3.~.Q.z.G.=XK.",
"XX~.`.5XoX].H.XXXXXXA.u.s.J..X.X.XG.g.S = B %X} : Z *Xo.U ; ; q j 8 ; D XXK.a.a.A..X.X.X4Xm.&.<.3.2.2.3.2.H.5X[.Q..X5X=X]..XXXXX",
"D. XoXJ.Z.G.oXS.m.XXXXK.Z.s.s.s.B.&.3.P.p $ ) *Xq B *Xo.w & < ; = : A ^.K.oX.XA.Z.s.s.B.z.,.P.Q.5X`.~.5XK.K. XJ.4XXXA.B.4X.Xm.D.",
"4.0.A.B.a.k.W.6.4.F.G.F.Z.a.Z.J.K.`.V.s 4 $ # Z { c 0 / c . * e @.$.<.5.m. XF.A.a.s.A.K.].].5XG.s. X5XZ.c.D.E.5.k.B.N.u.k.E.5.g.",
"q.7.=.x.f.6.=.k.0.=.p.a.a.Z. XA.N. Xd 4 < m s 1 c w # l ' ] m - e 6.z.E.9.k.a.a.b.G.F.s.G. XZ.a.u.Z.F.l.6.6.q.q.9.j.x.8.6.f.g.9.",
"f.f.q.6.0.0.z.M.b.z.b.N.N.s.k.k.a.@.$ r L.xXZXbX' 7 M ' fXVXR.$ $ m N.s.z.x.N.N.N.x.k.s.s.a.a.s.k.l.9.6.k.x.0.f.0.6.q.0.0.b.M.x.",
"N.<Xx.z.s.N.x.N.N.M.x.f.x.l.6.f.@.- > % % F KXIXIXIXIXPXIXKX0 0 r $ d N.M.s.f.x.z.q.7.b.N.N.s.s.F.Z.j.n.B.B.s.M.N.x.x.M.s.s.N.N.",
"x.z.k.f.z.s.x.x.N.v.q.6.q.7.0.0.a ; G [ y . C ] rXLXKXKXPXKXyX>XL.0 > y.s.0.6.q.q.0.0.0.f.j.b.J.XXK.G.oX].g.x.z.z.l.f.x.s.z.v.s.",
"0.q.7.7.7.0.0.q.,.,.0.f.z.0.>.%.& z R.jXjXL.I.] {.BX>XlXmX:XsX$X[ z - N 2.8.f.l.f.>.6.0.f.j.Z.F.K.XX.Xm.f.=.f.0.q.7.7.8.0.9.,.,.",
"0.q.7.9.0.q.:.2.2.;.2.<.8.E.P.n - G -XpXpXjXBXJXGXF L JXNXlX>X-XY.[ 0 e ;.2.<.8.8.Q.2.:.s.1XK.K..X.Xs.u.s.s.f.7.q.9.0.0.>.2.2.;.",
"x.k.0.8.6.;.P.K..X3.Q..X~.].5X0 8 ' Y.-XpXhXGXIXrX  L IXJXxXuXuXhXR.r - D 3..X`.`.5XH.Q.D.B.s.s.J..XF.A.s.s.x.x.f.7.8.2.2.`.=X].",
"s.N.S.D.`.`.4X4X X.XXX X5XXXD $ M T.;XuXpXmXJXLXeX  L LXGXNXxXdX>XpX] - p XXXXXXXXK.XX5XK.F.A.a.a.A.F.Z.s.a.s.N.N.S.D.`.:X>XpX>X",
"s.s.N.s.B.G..XA.s.G.F.s.A.Z.d 0 [ tXhXuXpXnXxXAXrX  L JXxXmXlXpXdXlXT.k 4 K.s.A.A.s.K.XX.X=X.XA..XF.N.B.B.N.s.s.Z.N.:X:XlXBX6X[.",
"s.s.a.a.a.a.s.s.a.N.N.a.a.y.- > Y.pXuX>XnXBXNXLX8X. h FXHXCXNXgXdXlXtXM $ g a.s.a.a.A.J.Z.Z.F.J.J.F.c.n.n.b.s.s.g `.lXJXKXF D y.",
"4.g.B.G..XG.N.x.x.x.&.x.s.s > 0 G Y.uXkXBXHXIXIX0 *   SXIXJXZXBX>XpXuXL.0 2 d.N.s.N.a.a.a.a.a.i.a.=.q.6.6.0.W.^ h GXIXIXDX. #.b.",
"%.A 4 s .XK.S.g.=.z.z.f.s.p - ' R.uX-XyXfXDXIX9X* : $ K nXgXfXyXR.sXR.r > 2 &.x.M.z.7.z.b.x.s.k.0.7.z.s.z.>.>X;XFXIXIXLXF p f.f.",
"e * m 0 e &.j.k.z.x.z.&.s.p - Z tXcXM . : 4 4 % - < > O : < > X < pX-XM : 2 &.x.s.7.7.0.q.8.z.x.s.a.s.<Xy.6 lXLXIXPXMXZXy f z.x.",
"t @ G tXr k >.6.9.9.q.7.0.a - Z -XjXR.m O X * : < > > > - $ . 8 L.;X' Y.r ; >.0.8.f.N.s.x.a.s.a.f.<.<.%.+ N IXJXPXpX7XeX> >.9.9.",
"t > @ G vXG X D '.z.x.s.k.n - G uXpXhXAXeXm o > > > > > % h rXJXcX-XU.[ < > y.x.q.9.f.f.k.s.W.Q.~.[.V.% y HXJXdX-XhXVXL 6 `.H.W.",
"e 8 < . G vXC X e C.N.s.x.p : m L.uXpXmXHXGXGXC X > $ 0 yXnXJXHXhX;XU.M t 2 p.x.g.W.'.].D.D.m.D.4Xh.* k CXAXdX;XjXxXm 4 y.4XG. X",
"5 w Q c @ C vX] ; ; A s.x.s - * Z U.pXNXCXJXIX9XX > o N IXIXCXNXlX>X;XL.m : h.p.s.B.B.N.N.A.B.a.y.* t HXHXdX;XhXhXy % %.f.j.=.=.",
"3 0 |  .E u F T.L.k - ; g f - M R.;XpXlXlXxXJXGX8 * . rXIXLXCXmXpXpX;X[ 8 t a.a.a.a.s.Z.F..X.XV.+ y AXeXL.pXhXjXk $ %.7.&.f.f.'.",
"3 0 Q ! |  .c M tXzXsXC 8 t O 0 ] hXxXpXnXNXNXCXm @ * yXBXmXCXnX;XpXsXZ - ^ F.B.M.@.2 d G.A.y.: y HXfXo L.zXhXk * #.k.s.G.K. XK.",
"3 0 Q ! Q E | ,XL.C C yXBXU.I.F @ ] kXgXCXNXxXLXSX  L IXGXmXNXgXuXkXuX0 - &.'.^.e 0 B 4 d d.* k HXmXy U.cXsXz $ y.N.s.f.W.m.W.q.",
"3 0 ! ! ~ ( ( pXR.M - 0 4 T.HXbXX 8 jXhXnXNXNXJXGXL DXIXGXNXmXuXzX] < - n 4.*.a 8 u aXR = - w mXCX0 m vXhXy % y.<Xs.k.k.p.a.j.=.",
"5 0 ! ! ( X.( >XjXjXzXU.y . F >X- @ m pXBXNXNXLXIXIXJXxXmXCXlXkXG @ $ s n.=.+.r o.u M I X r cX{.- M kXjXz $ K 9.z.<.<.f.a.A. XA.",
"5 0 ! ! Q ~ OXNXNXdX;XkXcX6 L dX- : X u xXHXBXNXCXCXCXmXCXAXvX^ X ; e .X.Xc.g R *XI @ $ y cX{.. - zXcXy $ r.].<.2.~..X~.n. XXX.X",
"7 6 Q ~ Q Q X.lXCXgXuXuXzX0 C pX& q j X 8 T.CXAXNXmXmXAXZXF u % < < t K.XX.X@.u o.W @ 4 pXR.X 0 {.kXy % $.D.5X5X.XXX X XXXXX.X.X",
"3 r ( E E Q { tXlXxXgXuXjXM C ;X& q J x o . k T.CXAXAXyXN . X l l ; e 0.J.oXr.$ U O.c 2 0 $ r U.tXm % C.4X.XD.W.D. XZ.a.F.D.8.S.",
"2 t pX$X( P P @XxXnXNXuXhX] F ;X& q H H x < o . F BXqXX . > j _ v j 3 6.g.S 2 2 > U O.c o 8 R.U.0 @ t.a.=.E.7.5.=.N.N.k.9.q.6.0.",
"2 r pXdXuXtX{ X.gXuXuXuXhX[ L.-X$ u Q V v v l 8 o > $ ; l x Y | Y h 7 z.%.- 4 [ F - U ` l - m z @ ; d.0.7.9.q.7.7.0.f.q.q.x.x.&.",
"2 t hXuXdXHXNX$X-XdXpXuXpXU.tX{.$ w  .! T V J v 8 o - x H V !  .V = @.N.D - M Y.R.G % V _ l o < v < n 4.a.a.f.x.z.0.0.z.g.x.M.s.",
"7 ; L.hXdXlXZXpXP X.-XdXjXG R.{.& q Q ! ! ! W Y x h l b V ! | ~ v > #.M.7 8 [ R.hXjXr @ v _ j & Y T > r.G.Z.N.M.N.x.x.M.N.b.N.M.",
"p X F cX>XdXVXlX{ ( Q +XsXn [ ;X$ w | ! ! Q | Q Y _ Y Y ! | ! T l > $.x.7 > Z sXpXzXL.$ - v x < > w < r.^.f.z.f.f.0.7.f.z.f.z.z.",
"%.a 0 uXhX>XgX$X{ OX( ~ | 0 m ;X& q T W | | | | | | | | ! W v h > : >.K < $ 0 U.jXcXcXy @ > v v > ; r.j.k.k.0.7.q.0.0.9.7.6.:.;.",
"f.%.@ G cXpXuX$X~ { Q Q | 1 k U.= q H v T W T T T T T W Y v 8 & > K 1.; w x ; > F [ ] 0 - > > 4 < t.s.a.s.b.z.0.7.q.9.q.:.2.!.3.",
"s.a.A @ ] zXuXdX( E Q Q  .w N ' - < q q < , , , , , , < q < ; > N !.C.; q v < - @ @ @ > D h.@.7 @.K.K.F.b.s.N.s.x.W.W.,.3..X5XXX",
"s.N.A.f @ ] zXdX+XQ Q  .U B ] o $ > ; ; ; ; ; ; ; ; ; o . - < 0 C.XX Xp > > t D D D C r..X.XJ.a.s.Z.Z.s.s.s.s.s.Z.A.F.H..XXXF.J.",
"N.N.s.a.f @ [ cXuXQ  .E 0 C : D D $ < $ `.=X'.'.'.'.'.a.@.4 : < y.F.A.y.r.h.y.s.b.a.K.XXK.K.K.K.XXJ.B.A.A.B.N.N.s.s.a.a.A.F.s.a.",
"k.v.s.N.A.f @ ] jX .E - 0 + m A.'.4 - o (.2X}._.)._.}.^.x.N $ o @.u.a.N.N.x.s.s.a.s.N.Z.s.s.Z.A.B.Z.g.0.0.n.x.z.s.s.Z.Z.a.a.N.s.",
"6.0.S.K.oXK.A $ ^ Q 8 F + m }._.2X(.o % n ).0X/./.0X0X0X0X8 o 4 |.J.n.f.k.&.f.x.N.s.k.a.N.s.a.p.f.q.7.=.7.q.q.6.g.D.XXXXK.m.f.z.",
"j.l.k.Z.F.A.m.A : ; k M m './.0XL 4 . . 6 )._.'.'._.)._.S . o F 2X}.n.f.z.s.f.x.M.f.6.f.f.f.x.z.f.k.N.<Xs.=.z.j.l.x.F.F.Z.n.f.z.",
"N.g.,.j.d.,.f.=.A ; . n _._./._.S S L L 1.'.)._._.(.'.I.o * % . 8 /.).f.x.0.7.z.z.7.z.g.8.f.z.N.<Xd.f.x.f.k.<XZ.8.<.k.9.7.=.=.x.",
"XXXX~.;.3.`.<.E.8.a m _.).0X_.'.^.'.2X'._.qXqXqXqX0X(.6X{.eXK 4 N qXqXE.4.0.f.f.6.f.a.a.a.i.a.j.8.P.P.3.3.E.G.oX[.3.;.Q.~.<.W.4.",
"D.W.4X`.`.3XK.XXK.A.Z.2X_.0XqX(._.}.}.qXwX|.:X}.|.:X:X|._.2X|.wX6X|.=X.XD.N.s.s.8.8.W.W.n.S.!.!.].XXD.].XX.XXXm.S..X~.G.1X.XXXD.",
"8.5.8.m.c.u.M.B.A.A.s.S._.wX}.|.|.|.}.}.|.|._.).}.}.wXqX0X0XwX}._.S.B.A.J.Z.s.x.n.S.A.J.J.S.b.B.G.m.=.g.S.W.E.4.5.E.m.x.a.B.Z.A.",
"7.f.9.4.6.q.=.*.0.f.k.N.b.S.'.}.^.'.|.|.^.^.'.}._.)./.0X).0Xe.e.q.=.=.0.0.j.s.s.s.s.s.a.s.A.J.s.u.a.s.x.=.9.4.0.f.q.6.6.9.=.*.0."
};