/* XPM */
static char *_34a1837810b4418e2ce64003c669231gBPvxpkuWuGVvdrd[] = {
/* columns rows colors chars-per-pixel */
"64 64 253 2 ",
"   c #0F061D",
".  c #080A26",
"X  c #130A24",
"o  c #15172A",
"O  c #1A1A33",
"+  c #221C29",
"@  c #0C2430",
"#  c #192637",
"$  c #1B373C",
"%  c #332E2F",
"&  c #252A36",
"*  c #293839",
"=  c #43392F",
"-  c #483A39",
";  c #324336",
":  c #39463A",
">  c #464836",
",  c #4F4F33",
"<  c #48573B",
"1  c #674638",
"2  c #55653B",
"3  c #5D723F",
"4  c #66713E",
"5  c #181F43",
"6  c #1B2D45",
"7  c #1B3846",
"8  c #11354B",
"9  c #1C3C4B",
"0  c #212845",
"q  c #2B374C",
"w  c #233849",
"e  c #283957",
"r  c #4D3E43",
"t  c #1C4549",
"y  c #1E434D",
"u  c #1A4C53",
"i  c #25464A",
"p  c #354B45",
"a  c #25584A",
"s  c #254857",
"d  c #2A435C",
"f  c #23545B",
"g  c #245859",
"h  c #1C6259",
"j  c #36684B",
"k  c #276553",
"l  c #2B795B",
"z  c #18556D",
"x  c #2B4764",
"c  c #2B4B62",
"v  c #2B5464",
"b  c #265C66",
"n  c #295B65",
"m  c #1D6C6E",
"M  c #256365",
"N  c #24636A",
"B  c #2A636B",
"V  c #266D6D",
"C  c #296B68",
"Z  c #2A7B67",
"A  c #27726E",
"S  c #2A746D",
"D  c #297C6D",
"F  c #337E6A",
"G  c #296571",
"H  c #256C71",
"J  c #2C6C73",
"K  c #257471",
"L  c #2A7474",
"P  c #257B73",
"I  c #297C74",
"U  c #2C7A7A",
"Y  c #524947",
"T  c #485A47",
"R  c #57564A",
"E  c #70534A",
"W  c #586946",
"Q  c #4F724C",
"!  c #687A45",
"~  c #747247",
"^  c #6C7162",
"/  c #85674D",
"(  c #A57957",
")  c #70843D",
"_  c #338A5C",
"`  c #1C8A71",
"'  c #298568",
"]  c #2A836D",
"[  c #268C6E",
"{  c #2C8C6C",
"}  c #348865",
"|  c #2C946B",
" . c #28926C",
".. c #2E9A6B",
"X. c #379667",
"o. c #369D67",
"O. c #3A9E65",
"+. c #319569",
"@. c #329B69",
"#. c #298775",
"$. c #2A837B",
"%. c #2C9777",
"&. c #319C75",
"*. c #3DA265",
"=. c #32A36C",
"-. c #38A869",
";. c #32A576",
":. c #32AB72",
">. c #4D904F",
",. c #778747",
"<. c #779747",
"1. c #6B8E53",
"2. c #47A55F",
"3. c #4DAD5E",
"4. c #51AD5D",
"5. c #4DB25B",
"6. c #54B25B",
"7. c #5BB959",
"8. c #5CB858",
"9. c #77A35B",
"0. c #7CA65D",
"q. c #75AA5D",
"w. c #7CAC5D",
"e. c #63BD56",
"r. c #6CBD5A",
"t. c #76BB5A",
"y. c #449862",
"u. c #598A7B",
"i. c #559270",
"p. c #66846D",
"a. c #66976B",
"s. c #6D9A6B",
"d. c #749E66",
"f. c #749B6C",
"g. c #7B9C6D",
"h. c #648E77",
"j. c #639273",
"k. c #6C9373",
"l. c #729574",
"z. c #779675",
"x. c #7B9971",
"c. c #42A462",
"v. c #46AA63",
"b. c #48B564",
"n. c #5AB967",
"m. c #67A366",
"M. c #6CA465",
"N. c #65A268",
"B. c #6CA269",
"V. c #74A565",
"C. c #7BA564",
"Z. c #75A862",
"A. c #7BA962",
"S. c #71A468",
"D. c #7DA569",
"F. c #5EC35D",
"G. c #67C656",
"H. c #6AC453",
"J. c #72CA58",
"K. c #59D06C",
"L. c #65D562",
"P. c #74E763",
"I. c #898F4D",
"U. c #A69A4B",
"Y. c #A29A52",
"T. c #88A64E",
"R. c #97A84D",
"E. c #8EB74C",
"W. c #9DBC47",
"Q. c #93B64E",
"!. c #95B94C",
"~. c #9CBA4D",
"^. c #85AC57",
"/. c #83AD5C",
"(. c #8AAE5C",
"). c #98AF5A",
"_. c #86B155",
"`. c #8CB355",
"'. c #85B059",
"]. c #8AB159",
"[. c #93B553",
"{. c #9AB653",
"}. c #96B850",
"|. c #9CB951",
" X c #94B15C",
".X c #9CB35B",
"XX c #9CBD5E",
"oX c #A6BF47",
"OX c #A2BC4B",
"+X c #ABBD4D",
"@X c #B2BF4E",
"#X c #AEA756",
"$X c #A9B756",
"%X c #A4B951",
"&X c #ACBA53",
"*X c #A3B45B",
"=X c #ACB55C",
"-X c #B3BB55",
";X c #BBBD55",
":X c #B3B65D",
">X c #BCB65E",
",X c #B5BA59",
"<X c #BCBA5A",
"1X c #869C6D",
"2X c #898F71",
"3X c #869973",
"4X c #84A367",
"5X c #83AA63",
"6X c #8BAC63",
"7X c #8DA26C",
"8X c #93AC62",
"9X c #99AA65",
"0X c #93A26C",
"qX c #9BA66A",
"wX c #9BB261",
"eX c #87A977",
"rX c #94AA78",
"tX c #93B375",
"yX c #A4AA67",
"uX c #ABAD65",
"iX c #A7B562",
"pX c #B4B362",
"aX c #BBB462",
"sX c #A6BA75",
"dX c #B1B475",
"fX c #C3BE56",
"gX c #C4B758",
"hX c #C3BB5B",
"jX c #CBBC5C",
"kX c #D2BE5B",
"lX c #D9BF5D",
"zX c #CABA61",
"xX c #CCBC6A",
"cX c #85C85C",
"vX c #A5C146",
"bX c #A9C244",
"nX c #ADC14A",
"mX c #B9C24D",
"MX c #AFCC66",
"NX c #AAD462",
"BX c #B7E767",
"VX c #C7C84A",
"CX c #C4C154",
"ZX c #CCC156",
"AX c #D8C456",
"SX c #D3C158",
"DX c #D8E161",
"FX c #D1EF6A",
"GX c #2C8A83",
"HX c #308684",
"JX c #2D9286",
"KX c #38C482",
"LX c #8FA981",
/* pixels */
"/.[.oX&X,X%X~.~.OX~.`.~.~.~.~.OX~.~.~.~.OX~.`.C.B.C.]./.].oX+X$XT.~.~.~.~.`.|.OX~.~.OX~.~.~.~.~.OX[.A.B.S./.]./.~.+X&X-X~.~.~.OX",
"B.C..X>XkX<X*X(./.]././.~.OX[.`.OX~.~.~.[.A.B./.].A.B.S.S.(.:XY.~ =X Xw./././.[.OX~.].~.OX~.OX[./.B.A.]./.S.S.B.5X=XjXjX,X.Xw./.",
"E./.'.|.@X{.[.].].}.}./.~.~.S.B./.A./.[./.].~.bXbX}.].!._./.[.4 o [.`.].[.~./.[.oXA.B.A.A.A.`.].].}.vXbX~.].Q._.w.].+X&X[.[.].`.",
"&X8Xk.0.0.s.0.Z././.S.V.].A.0.~.].A.].~.bXQ.V.0./.C.Q.+X*Xf.d.T W 9.Z.w.].V.S././.C.[.[.A./.[.vX~.0.C./.Z._.nX=X4Xk.w.d.d.q.Z.].",
"jXkXuXu.z.aX7X9X5Xq./.]./.B._.Q.`.!.!.`.5X4XyX1X1X3X9XSXkX>Xp.,.FXR 7X8XV./.].(.B.w.Q.`.!.~.[./.4XqX0X1X3X7XhXkXjX1Xu.qXuX7XwXV.",
"*X5X,XpX=XmX;XjXhX,XOXOX[.C.5X9X9X*X*X8XuXjX<XiXhXSXhX:X5X*X~ MXFX: gXjX<X+X~.~.A.D.8X9XwX$X8XqXzXjX=X:XSXhX<X X X<XpX;XmXjXjX<X",
"S.N.S.(.]._.~.~.{..X|.~.[.{.&X-X-X&X%XOX+X%X].w. X X5XC.N.B.< FXFX1.2 [..X{.~.[.{.$X-X;X-X%XOXoX&X[.w.(..X5XA.M.N.A.].].`.~.|..X",
"A.].A.B.B.S.w.q.5X6X`.~.~.~.!.!.~.%X<X,X~.!.~.~.`.w.Z.S.(.1.! FXDXNX$ A.6X].~.~.~.!.!.~.~.,X<X%X!.W.~.[./.A.S././.S.B.B.Z.w.q.6X",
"[.oX[.A.].%X-X&XfXlX-X!.~.!.~.OX&XhX,X-XhX,X~.`.`.`.].[.oX: BXDXDXFXj I.SX;X~.~.!.!.OX&X<X<X&XhX<XOX[.`.`.].`.~.OX/.0.[.&X&X,XjX",
"~.~.~.OX!..XiX=X6X6X>X<X$X&X{.].~.~.!.!.%X&X~.~.~.OXOXOX,.1.FXMXNXBX].# 5X=X<X&X&X{.`.Q.~.~.W.OX&X%X~.~.OXOXOX~.~.~.~.[.iXiX*X6X",
"OX~.~.~.].w.E.w.M.M.V.5XD.D.S.B.S.Z././._.`.~.~.~.~.vXvX; BXNXNXt.r.FXp >.S.5X5XD.D.S.S.V.w./._._.!.~.~.~.OXvXOX~.OX}././.`.q.M.",
"/.vX`.s.0.OXOX&X+Xq.w.Q./.w.w.w.w._.`.`.~.OX~.~.vX[.V.Q ! BXr.J.cX8.cXn.* Z.[.].w.w.w.w.'.`.].[.OXOX~.vX~.0.s.`.vX0.s.`.vXOX-X}.",
"l.a.l.0X7X/.&XjXjX*X].W.~.~.%X&X;XfXnXbX[.0.|.~.V.g.qX* H.G.5.J.cXc.5.L.l W !.~.~.+X%X-XfXmXbX~.0.`.~.^.f.0X1Xk.a.x.qX4X`.;XzX<X",
"jXqXuXAXkXpX>XjXjXjX&XE.~.,XhXhXhX;X(.9.f.z.u.k.l.x.U.j L.6.5.r.cXv.} H.K.t !.!.&XhXhXhXCX.X0.f.z.h.j.x.k.:XAXaX0X<XAXzXpXhXjXjX",
":XfXkX,X%X;XkX*X.XjXjX<X%X~.~.~.+X0.g.3XyXAXqXuXSX>X: 7.L.v.2.r.cXG._ a F.b.: $X%X~.~.+X`.s.3X0XSXpXqXSX<X>XfX-XjXjX&X+XZXhX.X=X",
"M.A.&X+X!.`.6XB.M.-X;X-X%X!.%X,X<XuXhXSX&X%XSXZXQ.: O.P.X._ F.H.8.8.G.h $ -.:.T ! ~.&X<XpXpXSX-X~.fXSX%X{.=X5XN.].@XOXE.].5XN.(.",
"S.V.w.[./.B.w.].A.w.Q.!.!.%XfX&X%XfX-X~.!.Q.R.T k ;.K._ 6 >.J.O.6.3.e.K.t X ' Z * ;X;X~.;XfX%X!.E.%X-X'.B.M.S.S.Z._.[.C.B./.(.Z.",
"/./.S.B.A.A.].oX|.`.|.OXOXOX].[.!.~.!.~.!._.1.$ l -.a . j L.} { 3.*.@.7.&.8 = 4 ~.[.].~.~.!.!.~.`.'.Z.B.].[.A./.A.B.S.A.A.|.oX[.",
"OXbX[.].~.OX[.~.OXoX[./.[./.B./.OXOX~.!.%X-X!.<.W ,   s n.F m 6.c.| [ o.v.K < [.`.S.V.~.OXOX~.~.-X%X_. X+X+X~.oXOX[.[.oX~.~.OXOX",
"[.`.]./.`.~.[.[.OX}.S.B.S.V.A.A.0./.].%XfXhX<XfXjXW 9 ;.@.K ] v.6. .| +.@.%.9 a.S.A.A.0./._.[.;XjX<X;XkXpX(.[.`.`.'./.[.~.`.}.~.",
"A.S.V.V.V.A.A.S.s.s.A.w.].A.a.S.A./.`.%X,XhXjX<X,.# $...o.| {  .*.o.| | | &.K ; /.a.B.A./._.%X-X<XjXhX.X/.w./.A.S.V.V.C.A.V.s.s.",
"A.S.V.Z.A.S.j.k.h.u.k.g.C.4X1Xu.s.+X;X<XhXjX,XE.% V %.3.v.| ..+.| @.D ] @.| &.9 * 7Xk.i.~.mX<X<XhXhX~.E.~.~./.V.S.Z.A.A.a.j.k.u.",
"[.].A.C.B.u.1X>XhXx.7XhXqXpXAXyXqX&XOX!.%X<XY.: C %.2.7.@. . .3.o. .y.A | 3.=.D 7 T ~ 2X=X+X~.~.,XhX-X&X~.~.[.[./.V.C.j.h.yXhXpX",
"~.OX$X$XuXyXZXZXhXhXjXhXSXjX<XZXSX,X-XR.<.< 9 $.%.3.F.v.{ @.o.7.3.*.H.y.S H.*.;.k y K 7 #X-X&X!.!.&X-X%X~.!.~.OX+X*X$XyXpXAXfXjX",
"~.~.+X~.+X;XhX&X~.;X-X~.&X%X%XhXhXhXzX> # V GXz y.P.>.a { b.6.6.7.e.H.e.} y.6.b.c.$ i R >XzXhX&XhX-XOX+X+X+X~.~.%X+XOX@X;X<X|.|.",
"~.~.!.!.!.!.~.~.!.OXOX!.!.!.~.-X-X%X&XI.* 7 t Q G.>.7 m =.6.e.8.8.c.3.H.6.[ 6.3.:.Z , ,X%X%X-X-X;X;X{. X X|.~.~.!.!.~.!.!.~.~.!.",
"B.(.+X;XhX;X+X[.[.[.0.[.~.~.~.!.!.!.!.!.W.3 * >.* 5 P %.c.H.6.o.e.3.K 2.J.*. .*...&.s ) !.!.!.W.!.w.S.M.B.A.C.S.{.;XhXhX-X|.`.!.",
"w./. X:XhX<X*X(.w.`.`./.~.OX/.A.[.[.[.~.].V.1.X 8 #.%.*.H.2.] ` c.H.{ m 4.H.*.' @.=.#.w <.[.~.`.A.V.`.~.].S./././.*X<XfX-X.X/./.",
"~./.9.!.~.0._.].[.[.`.0.~.[.S.A.A.S.A.`.[.~.: b &...v.8.X.K c.3.[ 3.7.] P c.-.' a &.;.#.i Q ].[.~.~.~.bX~.[.W.[.Z.w.OX].w.`.`.[.",
"<XpXl.j.f.3Xf.M.Z.Z.S.V.A.V.].vX~.[.~.~.Q.& b ;.@.| *...#.3.H.e.| [ 6.3. .[  .:.k $ C %.JXB & !./.g.f.d.s.0.@XhXqXh.a.g.1Xs.V.Z.",
"hX<XZX3X7XZXuXaXiX].[.~.].B.w./.].}.{.! & M &.{ D =.[ K 6.G.e.3.| +. .o.o...Z ] KXt   y y * W 4XqXzXpXqXuXuXkXhXCXaXl.:XfXuX>X6X",
"6Xm. X:X$XOXmXCXfXfXOX~.[.6X8XiXiXI.T f $.JXA f ' { m y.H.8.8.+.v.*. ...{ | +.9 f $.i = I.$X).$XZX=X(.*X<X=X*XA.S.*X-X+XoXCX;XfX",
"M.V.M.V.A.A._._.w./.[.~.[.OX+X+X~.< y A M 9 O g #.z y.H.7.e.c.@.3.| ..| ] A %._ 7 9 Z l 2 ,.+X!.!.[.`.].].Z.M.S.S.M.Z.A./._.w.w.",
"/.}./.B.V.w./.w..XpX[.!.~.~.!.~.%X,X~ > % o M %.K y.H.6.@.*.| o.o. .| | D H A =.:.g 0 t & Y.hX,X%X~.[.[.]./.A.`.[.V.S.V.0././.=X",
"~.OX[.`.!.+XhXfX<XhXfX+X+XOX~.~.+X;XOXOX= b %.| y.7.v.3.o.[ | | | @.+...{ ] S D =.+.c 6 > &X~.;XhX%XQ.[.[.[.~.OXOX[.`.~.;X<XfX<X",
"~.~.~.~.].5X.X XS.S.wXiX.X.X(.0.^.^.,.: N #.@.@.*.| ..*.+.| | | | *.o. .@.o.| D { =.S x s < Q.`.[.|.~.~.~.~.~.~.~.OX!./.6X.X6XS.",
"OXOX~.`.].`.!.E._.Z.M.w.S.B.S.a.o y M GX;.=.{ D [ .. .K | @.@.{ ] | v.@.[ v.o.| @.' k #.GXM * 0.[.~.~.~.OX~.~.OXvX~.].].Q.!._.w.",
"a.`.C.l.C.E.OX;X;X/./.oX[._.].^.< # s u k M H ] ..@.D ] .. ...{ H H 6.3.o.c.3.| ..=.a 7 M GXGX7 2 oXOXvX`.f.k.V.`.f.f./.!.&XfX&X",
"0Xk.1X>XuX8X-XjXjX:X[.!.OX&X;X;XhXgX, X 6 N [ *.6.@.{ | | O.*.| A K c.e.H.6.e.v.[ _ ;.9 o $ j w T C./.s.u.uXpXg.h.qXhXqX XfXjXhX",
"AXhXhXjXfXhXjXhX<XjX;X~.%X-X<X,X$X,.p e b %.-.6.c. . .v.c.3.*...D ] =.7.v.7.e.7.=.u a ;.I y & k.qXx.h.qX0X:XAXSXhXjXhXhXjXjXhXhX",
"8X*XfX-X!.+X<X6X6XhXjXhX%X!.<.2 & w v S ..=.v.+.]  .3.7.3.3. .@.| ] | 3.*.@.c.e.b.#.w i a s T uXCXhX<XZXCXhX=X6X=XhX%X!.;X=XC.*X",
"B.V.[.oX!.w.Z.M.B.[.+X%X~.%X# C HXU { ;.;.C b N  .3.H.o.*.-.C Z =.|  .o.c.P [ 8.3. .b e + #XCX+X!.;XZX!.w.5XV.N.w.OXOX].Z.S.B.A.",
"V.Z.V.w.A.B./.~./.w.[.~.~.&X,.; g C C f 9 6 e S 5.e.-.|  ...d V -.+.....| A K *.*.=.C x w ,.!.!.[.`. XA.V.Z.S.V.V.A./.S.S.[.[.0.",
"[.[./.V.].].].oXOX~.~.~.OX[.q.! o # o # 0 e B b.6.=.' n ..Z x P v.v.Z } :.] G A { =.@.v d # Q.!.[._.q.M.!.!./.[.`.A.A.`.(.[.oX~.",
"oXoX~.`.~.oX~.~.oXOX/.A.1.; i i d # # c v C -.b.@.b e } ..B V H X.b.C e } @.A H V ] %.S x d % R.hX-XOX,X;X%XOXoXOX[.[.oXOX}.OXoX",
"/./.A.V.0.`.'.'.[./.V.A.a.* w e # w c M Z Z M d c d } ..D ] A V ] -.+.b c Z { V H B b $.v e n i > / Y.Y.wX/.]././.A.V./.`./.].`.",
"A.S.V.A.V.V.S.a.u.h.C.V./.9.& # d B B v d e e e e M I ] @.D H D { ] =.{ H V D V n A i f U v c L V g u # `.].A.V.S.A.A.V.V.B.i.u.",
"/.A.V.M.Z.a.u.4X7Xu.k.0X* i f L U $.I v d d d c b V K | ] V V K { D ] | A V K K b V V O e $.L L A M i 2 ~.}.].A.V.S.Z.S.u.k.0Xx.",
"~.!.(.6XD.k.uXSXSX9XpXAX% g $.$.U J G w 0 v V P $.P I A K b B K A D H D S A B L K b #.Z X o a p & 2 #X-XOX~.OX~.[.6X8Xl.x.hXAXjX",
"~.~.&X-X:X<XkX<X&XjXhX-XhX~ * 7 w q O o s x n n B L v b V v V A V K A V A P v f I D ' ;.] # % ; ! {.%X~.OX~.~.~.%X&X-X>XhXjX-X,X",
"OXOX~.!.!.OX,X%X!.-X&X!.%X~.~.#XY., o M J v d e d d e V v B B B K B b C K K U 7 f %.| | =.&.] M # I.+X&X&X+XOXOX~.~.!.!.&X-X!.!.",
"].Q.~.OX&X~.!.~.OX~.}.~.~.!.R.< Q i A J c c d B v & n I A V d V K d d v I A I V 7 b $.%.#.$.$.g ! %X(.A.A. X[.`.~.~.%X%X!.!.OX~.",
"B.A.*X<XkX<X$X(./.].A.(.~.OXT.& g I GXI J J I M @ O n V J e d I v e x w v B A $.M O 7 s s y & 4 /.S.V.w.V.S.S.B.(.=XjXjX,X.X/.].",
"_.'.`.%X;X&X.X]./.[.[./.~.~.V.B.W * y y u u p > X d d d c O s J 6 6 J d O d B U U n 7 # # o T.]./.].OXbX~.w.`._.'.[.-X;X%X X/.].",
"+X(.s._.^.s./.w.].].A.C.`./.A.[./.Z.1.< 2 > 1.< g J v v O # v x & & H L 0 O & 6 s U JXGXg T `.OXvX^.^.[./.`.vX%XC.d.`.V.V.w.w.[.",
"jXjX0Xu.l.yXg.5XC.M.0./.A.S.`.!.!.!.W.Q.^.: i B $.JXN # o M HX8 + = 8 GXU f b 9 X i i w : W.!._.C.1X1Xg.x.4X;XkXaXz.u.0XqXg.6XM.",
":X XCXuXiXVX<XjX<X$X~.OX[.S.5X6X8X.X.X8XqX#Xq 7 t @ & Y u $.u o % E % 8 h $.V * Q Q 1.6X X$X8X0XpXjX:XpXjXhXjX.X*XhXqX-XmXhXjX=X",
"A.N.C..X{.E.oX+X$X&X~.~.[. X*X-X,X&X%XOXmX-X(.Q 1.2XrXR o & + / / / - % p @ + <. X*X&X,X-X$X|.+X;X.Xw.(.*X6X5XM.N.5X.X[.!.+X%X&X",
"S./.Z.M.B.S.w.q.A./.`.OX~.OX~.~.!.~.,X&X!.E.~.~.`.tX^   E E Y ( E ( = Y 3XrX{.~.~.~.~.!.~.&X,X~.E.!.~.[.w.V.M.A./.S.M.B.Z.w.q.A.",
"[.oX].V./.[.*X.X<XkX%X!.!.!.!.OX&XhX<X<XhX-X}.wXtXtXR + ( Y r E % / Y % > dXXX}.!.!.~.%X<XhX,XhX<XOX[.`.`.]./.~.~.A.A.].{..X*XjX",
"~.~.~.~.~.*XpX>X.XwXhX;X&X+X{.[.~.&X~.~.-X-X|.sXsXiX0X1 1 + % - 1 % E 3X2XdXxX:X+X%X[.~.&XOXW.&X,X%X~.~.~.OXOX~.~.~.~.|.=X:X:XwX",
"OX~.~.~.'.C.`./.M.M.5X6X6X6XD.V.A.w./.]._.`.~.*XwXsXMXdXR ^ 2XrXLX2XrXeXLXeXrX6X6X5XV.A.w./.]._.`.!.~.~.~.OXoX~.~.OX}.A./.`.w.M.",
"[.bX~.S./.OX~.+X|.q.w.].w.Z.A.A.Z.w.'.].[.[.~.~.~.iXrXtXMXMX5XLXsX%XiXsXtXV.]./.Z.Z.A.A.q.'.'.`.[.~.~.~.oX_.0.~.bX(.S.[.vX~.%X[.",
"h.5Xf.1X1X^.+XhXfX X].oX~.~.[.[.&X-X+X~.~.~.~.~.[.f.3Xl.eXeXx.LXrX~.<XzX*X/.OX~.~.~.[.+X-X+X~.~.~.~.~.~.C.1Xz.s.C.x.1X4XQ.-XjX;X"
};